<svg width="45" height="45" viewBox="0 0 45 45" fill="none" xmlns="http://www.w3.org/2000/svg">
<rect width="44.3588" height="44.3588" rx="22.1794" fill="#E8E7D5"/>
<path d="M29.5876 17.0301V14.0215C29.5876 13.6633 29.4408 13.3198 29.1795 13.0665C28.9181 12.8132 28.5637 12.6709 28.1941 12.6709H18.4394C18.0698 12.6709 17.7154 12.8132 17.4541 13.0665C17.1927 13.3198 17.0459 13.6633 17.0459 14.0215V17.0605C17.0464 17.2701 17.0969 17.4768 17.1937 17.6642C17.2904 17.8517 17.4306 18.0149 17.6033 18.141L22.1558 21.4501L17.6033 24.7592C17.4306 24.8853 17.2904 25.0485 17.1937 25.236C17.0969 25.4235 17.0464 25.6301 17.0459 25.8397V28.8787C17.0459 29.2369 17.1927 29.5804 17.4541 29.8337C17.7154 30.087 18.0698 30.2293 18.4394 30.2293H28.1941C28.5637 30.2293 28.9181 30.087 29.1795 29.8337C29.4408 29.5804 29.5876 29.2369 29.5876 28.8787V25.8701C29.5871 25.6614 29.5369 25.4557 29.441 25.2689C29.345 25.0821 29.206 24.9192 29.0346 24.793L24.4725 21.4501L29.0346 18.1073C29.2061 17.9811 29.3453 17.8183 29.4412 17.6315C29.5372 17.4446 29.5873 17.2388 29.5876 17.0301ZM27.6916 25.5021H18.9036L23.3168 22.2943L27.6916 25.5021ZM18.4394 28.8787V26.8527H28.1941V28.8787H18.4394ZM28.1941 17.0301L23.3168 20.606L18.4394 17.0605V14.0215H28.1941V17.0301Z" fill="#434027"/>
</svg>
