<svg width="37" height="39" viewBox="0 0 37 39" fill="none" xmlns="http://www.w3.org/2000/svg">
<path d="M36.3044 33.6458L24.4957 13.9583V3.06271H26.0271C26.4332 3.06271 26.8227 2.90137 27.1099 2.61418C27.3971 2.327 27.5584 1.93749 27.5584 1.53135C27.5584 1.12521 27.3971 0.735708 27.1099 0.448523C26.8227 0.161339 26.4332 0 26.0271 0H10.7135C10.3074 0 9.91789 0.161339 9.63071 0.448523C9.34352 0.735708 9.18218 1.12521 9.18218 1.53135C9.18218 1.93749 9.34352 2.327 9.63071 2.61418C9.91789 2.90137 10.3074 3.06271 10.7135 3.06271H12.2449V13.9583L0.436239 33.6458C0.157732 34.1101 0.00729536 34.6399 0.000258717 35.1813C-0.00677792 35.7227 0.129837 36.2563 0.396182 36.7277C0.662528 37.1991 1.04908 37.5915 1.51646 37.8649C1.98383 38.1382 2.51532 38.2828 3.05677 38.2838H33.6838C34.2258 38.2838 34.758 38.14 35.2262 37.867C35.6944 37.5941 36.0817 37.2018 36.3488 36.7302C36.6158 36.2587 36.7529 35.7247 36.7461 35.1828C36.7393 34.6409 36.5889 34.1105 36.3101 33.6458H36.3044ZM19.0613 25.432C16.0159 23.891 13.1178 23.0737 10.4054 22.9799L15.0894 15.17C15.2326 14.9326 15.3081 14.6605 15.3076 14.3832V3.06271H21.433V14.3832C21.4325 14.6605 21.508 14.9326 21.6512 15.17L28.9673 27.3729C26.6779 27.8209 23.4027 27.6294 19.0613 25.432Z" fill="#CAB79B" fill-opacity="0.5"/>
</svg>
