<svg width="18" height="18" viewBox="0 0 18 18" fill="none" xmlns="http://www.w3.org/2000/svg">
<path d="M16.875 3.9375V14.0625C16.875 14.2117 16.8157 14.3548 16.7102 14.4602C16.6048 14.5657 16.4617 14.625 16.3125 14.625H11.25C10.8032 14.625 10.3746 14.8022 10.0582 15.1178C9.7419 15.4333 9.56362 15.8615 9.5625 16.3083C9.56475 16.4231 9.53134 16.5359 9.46687 16.6309C9.40239 16.726 9.31003 16.7987 9.2025 16.8391C9.11714 16.8721 9.02503 16.8837 8.93416 16.873C8.84329 16.8623 8.7564 16.8296 8.68104 16.7777C8.60567 16.7258 8.5441 16.6563 8.50166 16.5753C8.45922 16.4942 8.4372 16.404 8.4375 16.3125C8.4375 15.8649 8.25971 15.4357 7.94324 15.1193C7.62678 14.8028 7.19755 14.625 6.75 14.625H1.6875C1.53832 14.625 1.39524 14.5657 1.28975 14.4602C1.18426 14.3548 1.125 14.2117 1.125 14.0625V3.9375C1.125 3.78832 1.18426 3.64524 1.28975 3.53975C1.39524 3.43426 1.53832 3.375 1.6875 3.375H6.1875C6.78424 3.375 7.35653 3.61205 7.77849 4.03401C8.20045 4.45597 8.4375 5.02826 8.4375 5.625V11.7935C8.43555 11.9387 8.48863 12.0792 8.58607 12.1868C8.68351 12.2944 8.81809 12.3612 8.96273 12.3736C9.03968 12.3787 9.11685 12.3679 9.18946 12.342C9.26206 12.316 9.32855 12.2754 9.3848 12.2226C9.44104 12.1699 9.48584 12.1061 9.51641 12.0353C9.54698 11.9645 9.56267 11.8882 9.5625 11.8111V5.625C9.5625 5.02826 9.79955 4.45597 10.2215 4.03401C10.6435 3.61205 11.2158 3.375 11.8125 3.375H16.3125C16.4617 3.375 16.6048 3.43426 16.7102 3.53975C16.8157 3.64524 16.875 3.78832 16.875 3.9375Z" fill="#323232"/>
</svg>
