<svg width="14" height="14" viewBox="0 0 14 14" fill="none" xmlns="http://www.w3.org/2000/svg">
<path d="M14 1.27273V6.04545C14 6.12984 13.9665 6.21077 13.9068 6.27044C13.8471 6.33011 13.7662 6.36364 13.6818 6.36364H7.63636V0.318182C7.63636 0.233795 7.66989 0.152864 7.72956 0.0931934C7.78923 0.0335227 7.87016 0 7.95455 0H12.7273C13.0648 0 13.3885 0.13409 13.6272 0.372773C13.8659 0.611456 14 0.935179 14 1.27273ZM6.04545 0H1.27273C0.935179 0 0.611456 0.13409 0.372773 0.372773C0.13409 0.611456 0 0.935179 0 1.27273V6.04545C0 6.12984 0.0335227 6.21077 0.0931934 6.27044C0.152864 6.33011 0.233795 6.36364 0.318182 6.36364H6.36364V0.318182C6.36364 0.233795 6.33011 0.152864 6.27044 0.0931934C6.21077 0.0335227 6.12984 0 6.04545 0ZM13.6818 7.63636H7.63636V13.6818C7.63636 13.7662 7.66989 13.8471 7.72956 13.9068C7.78923 13.9665 7.87016 14 7.95455 14H12.7273C13.0648 14 13.3885 13.8659 13.6272 13.6272C13.8659 13.3885 14 13.0648 14 12.7273V7.95455C14 7.87016 13.9665 7.78923 13.9068 7.72956C13.8471 7.66989 13.7662 7.63636 13.6818 7.63636ZM0 7.95455V12.7273C0 13.0648 0.13409 13.3885 0.372773 13.6272C0.611456 13.8659 0.935179 14 1.27273 14H6.04545C6.12984 14 6.21077 13.9665 6.27044 13.9068C6.33011 13.8471 6.36364 13.7662 6.36364 13.6818V7.63636H0.318182C0.233795 7.63636 0.152864 7.66989 0.0931934 7.72956C0.0335227 7.78923 0 7.87016 0 7.95455Z" fill="#323232"/>
</svg>
