<svg width="17" height="17" viewBox="0 0 17 17" fill="none" xmlns="http://www.w3.org/2000/svg">
<path d="M16.7344 8.23435C16.7335 7.50926 16.5353 6.79808 16.1609 6.1771C15.7866 5.55612 15.2502 5.04878 14.6094 4.70951C14.5945 4.00569 14.3648 3.32325 13.9511 2.75364C13.5375 2.18402 12.9596 1.75444 12.2949 1.52246C11.6303 1.29048 10.9106 1.26719 10.2323 1.4557C9.55409 1.64421 8.94964 2.03553 8.50002 2.5772C8.05039 2.03553 7.44594 1.64421 6.76768 1.4557C6.08942 1.26719 5.36974 1.29048 4.70509 1.52246C4.04044 1.75444 3.46256 2.18402 3.0489 2.75364C2.63525 3.32325 2.40557 4.00569 2.39064 4.70951C1.74916 5.04786 1.2122 5.55489 0.837644 6.17592C0.463086 6.79696 0.265137 7.50844 0.265137 8.23369C0.265137 8.95893 0.463086 9.67042 0.837644 10.2915C1.2122 10.9125 1.74916 11.4195 2.39064 11.7579C2.4053 12.4618 2.63479 13.1444 3.04835 13.7142C3.46191 14.2841 4.03978 14.7138 4.70449 14.946C5.36919 15.1781 6.08898 15.2015 6.76737 15.0131C7.44575 14.8246 8.05031 14.4333 8.50002 13.8915C8.94972 14.4333 9.55428 14.8246 10.2327 15.0131C10.911 15.2015 11.6308 15.1781 12.2955 14.946C12.9603 14.7138 13.5381 14.2841 13.9517 13.7142C14.3652 13.1444 14.5947 12.4618 14.6094 11.7579C15.2504 11.4192 15.787 10.9122 16.1615 10.2914C16.5359 9.67052 16.734 8.95935 16.7344 8.23435ZM5.84377 13.5469C5.44256 13.5468 5.05213 13.417 4.73078 13.1768C4.40942 12.9366 4.17439 12.5989 4.06076 12.2141C4.12716 12.2141 4.18627 12.2187 4.25002 12.2187H4.78127C4.99261 12.2187 5.1953 12.1348 5.34474 11.9853C5.49418 11.8359 5.57814 11.6332 5.57814 11.4219C5.57814 11.2105 5.49418 11.0078 5.34474 10.8584C5.1953 10.7089 4.99261 10.625 4.78127 10.625H4.25002C3.68578 10.6254 3.13959 10.4262 2.70808 10.0626C2.27657 9.69912 1.98754 9.19467 1.89214 8.63856C1.79674 8.08245 1.90111 7.51052 2.18679 7.02395C2.47247 6.53738 2.92104 6.16754 3.45314 5.97986C3.60857 5.92491 3.74313 5.8231 3.83828 5.68846C3.93343 5.55383 3.98448 5.393 3.98439 5.22814V4.78123C3.98439 4.28809 4.18029 3.81515 4.52899 3.46645C4.87769 3.11775 5.35063 2.92185 5.84377 2.92185C6.3369 2.92185 6.80984 3.11775 7.15854 3.46645C7.50724 3.81515 7.70314 4.28809 7.70314 4.78123V8.77755C7.55077 8.67984 7.39089 8.59435 7.22502 8.52189C7.03128 8.43735 6.8119 8.43324 6.61514 8.51045C6.41837 8.58766 6.26033 8.73988 6.1758 8.93361C6.09126 9.12734 6.08714 9.34672 6.16436 9.54349C6.24157 9.74026 6.39378 9.89829 6.58752 9.98283C6.97933 10.1535 7.30039 10.454 7.49665 10.8336C7.69291 11.2133 7.75239 11.6489 7.66509 12.0673C7.57778 12.4857 7.34901 12.8612 7.01729 13.1307C6.68557 13.4001 6.27115 13.5471 5.84377 13.5469ZM12.75 10.625H12.2188C12.0074 10.625 11.8047 10.7089 11.6553 10.8584C11.5058 11.0078 11.4219 11.2105 11.4219 11.4219C11.4219 11.6332 11.5058 11.8359 11.6553 11.9853C11.8047 12.1348 12.0074 12.2187 12.2188 12.2187H12.75C12.8164 12.2187 12.8762 12.2187 12.9393 12.2141C12.8508 12.5141 12.688 12.7869 12.466 13.0073C12.2441 13.2277 11.9701 13.3885 11.6695 13.4749C11.3689 13.5613 11.0513 13.5705 10.7462 13.5016C10.4411 13.4327 10.1583 13.2879 9.92404 13.0807C9.68974 12.8734 9.51151 12.6105 9.40584 12.3161C9.30017 12.0217 9.27048 11.7054 9.31951 11.3964C9.36854 11.0875 9.49472 10.796 9.68635 10.5487C9.87799 10.3015 10.1289 10.1067 10.4158 9.98216C10.6096 9.89763 10.7618 9.73959 10.839 9.54282C10.9162 9.34606 10.9121 9.12668 10.8276 8.93295C10.743 8.73921 10.585 8.587 10.3882 8.50979C10.1914 8.43257 9.97207 8.43669 9.77834 8.52123C9.61246 8.59369 9.45258 8.67918 9.30021 8.77689V4.78123C9.30021 4.28809 9.49611 3.81515 9.84481 3.46645C10.1935 3.11775 10.6664 2.92185 11.1596 2.92185C11.6527 2.92185 12.1257 3.11775 12.4744 3.46645C12.8231 3.81515 13.019 4.28809 13.019 4.78123V5.22814C13.0189 5.393 13.0699 5.55383 13.1651 5.68846C13.2602 5.8231 13.3948 5.92491 13.5502 5.97986C14.0847 6.16584 14.5359 6.53541 14.8235 7.02281C15.1111 7.51022 15.2164 8.08384 15.1208 8.64163C15.0252 9.19941 14.7348 9.70519 14.3013 10.069C13.8678 10.4328 13.3193 10.631 12.7533 10.6283L12.75 10.625ZM13.8125 7.7031C13.8125 7.91445 13.7286 8.11713 13.5791 8.26658C13.4297 8.41602 13.227 8.49998 13.0156 8.49998C12.3112 8.49998 11.6355 8.22012 11.1374 7.72198C10.6392 7.22383 10.3594 6.54821 10.3594 5.84373V5.5781C10.3594 5.36676 10.4433 5.16407 10.5928 5.01463C10.7422 4.86518 10.9449 4.78123 11.1563 4.78123C11.3676 4.78123 11.5703 4.86518 11.7197 5.01463C11.8692 5.16407 11.9531 5.36676 11.9531 5.5781V5.84373C11.9531 6.12552 12.0651 6.39577 12.2643 6.59503C12.4636 6.79428 12.7338 6.90623 13.0156 6.90623C13.227 6.90623 13.4297 6.99018 13.5791 7.13963C13.7286 7.28907 13.8125 7.49176 13.8125 7.7031ZM6.64064 5.84373C6.64064 6.54821 6.36079 7.22383 5.86264 7.72198C5.3645 8.22012 4.68887 8.49998 3.98439 8.49998C3.77305 8.49998 3.57036 8.41602 3.42091 8.26658C3.27147 8.11713 3.18752 7.91445 3.18752 7.7031C3.18752 7.49176 3.27147 7.28907 3.42091 7.13963C3.57036 6.99018 3.77305 6.90623 3.98439 6.90623C4.26618 6.90623 4.53643 6.79428 4.73569 6.59503C4.93495 6.39577 5.04689 6.12552 5.04689 5.84373V5.5781C5.04689 5.36676 5.13085 5.16407 5.28029 5.01463C5.42973 4.86518 5.63242 4.78123 5.84377 4.78123C6.05511 4.78123 6.2578 4.86518 6.40724 5.01463C6.55668 5.16407 6.64064 5.36676 6.64064 5.5781V5.84373Z" fill="#7B5D1C"/>
</svg>
