<svg width="15" height="15" viewBox="0 0 15 15" fill="none" xmlns="http://www.w3.org/2000/svg">
<path d="M10.8098 7.99731L6.12231 12.6848C5.99022 12.8169 5.81107 12.8911 5.62427 12.8911C5.43746 12.8911 5.25831 12.8169 5.12622 12.6848C4.99413 12.5527 4.91992 12.3736 4.91992 12.1868C4.91992 12 4.99413 11.8208 5.12622 11.6887L9.31626 7.49985L5.12739 3.30981C5.06199 3.24441 5.01011 3.16676 4.97471 3.08131C4.93931 2.99585 4.92109 2.90426 4.92109 2.81177C4.92109 2.71927 4.93931 2.62768 4.97471 2.54223C5.01011 2.45677 5.06199 2.37912 5.12739 2.31372C5.1928 2.24832 5.27044 2.19643 5.3559 2.16104C5.44135 2.12564 5.53294 2.10742 5.62544 2.10742C5.71793 2.10742 5.80952 2.12564 5.89498 2.16104C5.98043 2.19643 6.05808 2.24832 6.12349 2.31372L10.811 7.00122C10.8765 7.06662 10.9284 7.1443 10.9638 7.22981C10.9992 7.31532 11.0173 7.40697 11.0172 7.49951C11.0171 7.59205 10.9987 7.68366 10.9631 7.76908C10.9275 7.85451 10.8754 7.93207 10.8098 7.99731Z" fill="#75654C"/>
</svg>
