<svg width="19" height="19" viewBox="0 0 19 19" fill="none" xmlns="http://www.w3.org/2000/svg">
<path d="M17.2244 13.861C17.6346 13.0101 17.8359 12.0735 17.8116 11.1292C17.7872 10.1848 17.5378 9.25992 17.0842 8.43129C16.6306 7.60266 15.9858 6.89422 15.2034 6.36483C14.421 5.83544 13.5236 5.50037 12.5857 5.38746C12.2736 4.66187 11.8199 4.00584 11.2511 3.45779C10.6824 2.90974 10.0099 2.48067 9.27328 2.19573C8.53661 1.91078 7.7505 1.77568 6.96097 1.79834C6.17144 1.821 5.39437 2.00096 4.67526 2.32768C3.95614 2.6544 3.30945 3.12132 2.77304 3.70109C2.23663 4.28085 1.82128 4.96182 1.55133 5.70411C1.28138 6.4464 1.16225 7.2351 1.2009 8.024C1.23956 8.81291 1.43524 9.58618 1.77647 10.2985L1.2369 12.1325C1.17657 12.3372 1.17254 12.5544 1.22522 12.7612C1.27791 12.9681 1.38536 13.1569 1.53629 13.3078C1.68721 13.4587 1.87602 13.5662 2.08285 13.6189C2.28968 13.6716 2.50689 13.6675 2.71163 13.6072L4.54557 13.0676C5.13445 13.3505 5.76579 13.5348 6.4144 13.6131C6.72952 14.3515 7.19108 15.0182 7.7712 15.5731C8.35131 16.128 9.03792 16.5595 9.78952 16.8415C10.5411 17.1235 11.3421 17.2502 12.144 17.2138C12.946 17.1775 13.7322 16.9789 14.4553 16.6301L16.2892 17.1697C16.4939 17.2299 16.711 17.234 16.9177 17.1813C17.1245 17.1286 17.3132 17.0213 17.4641 16.8704C17.615 16.7196 17.7225 16.5309 17.7752 16.3242C17.828 16.1175 17.8241 15.9004 17.7639 15.6957L17.2244 13.861ZM16.0183 13.9701L16.6254 16.0312L14.5651 15.4248C14.4163 15.3817 14.2564 15.3985 14.1198 15.4716C13.0264 16.0554 11.7483 16.1891 10.5577 15.8441C9.36723 15.4992 8.35852 14.7029 7.74663 13.625C8.5596 13.5401 9.34627 13.2882 10.0573 12.885C10.7683 12.4818 11.3883 11.9359 11.8784 11.2818C12.3685 10.6276 12.7182 9.87924 12.9054 9.08358C13.0926 8.28792 13.1134 7.46216 12.9664 6.65809C13.6748 6.82505 14.3353 7.15255 14.8969 7.61529C15.4586 8.07803 15.9065 8.66365 16.2059 9.32694C16.5054 9.99022 16.6484 10.7134 16.624 11.4408C16.5995 12.1681 16.4083 12.8801 16.0651 13.5218C15.9912 13.6593 15.9744 13.8204 16.0183 13.9701Z" fill="#323232"/>
</svg>
