<svg width="19" height="19" viewBox="0 0 19 19" fill="none" xmlns="http://www.w3.org/2000/svg">
<path d="M14.8438 2.37489H12.1526C11.819 2.00137 11.4102 1.70251 10.9531 1.49789C10.496 1.29327 10.0008 1.1875 9.5 1.1875C8.99918 1.1875 8.50401 1.29327 8.04689 1.49789C7.58978 1.70251 7.18104 2.00137 6.84742 2.37489H4.15625C3.84131 2.37489 3.53926 2.5 3.31656 2.7227C3.09386 2.9454 2.96875 3.24745 2.96875 3.56239V16.0311C2.96875 16.3461 3.09386 16.6481 3.31656 16.8708C3.53926 17.0935 3.84131 17.2186 4.15625 17.2186H14.8438C15.1587 17.2186 15.4607 17.0935 15.6834 16.8708C15.9061 16.6481 16.0312 16.3461 16.0312 16.0311V3.56239C16.0312 3.24745 15.9061 2.9454 15.6834 2.7227C15.4607 2.5 15.1587 2.37489 14.8438 2.37489ZM9.5 2.37489C10.1299 2.37489 10.734 2.62511 11.1794 3.07051C11.6248 3.51591 11.875 4.12 11.875 4.74989H7.125C7.125 4.12 7.37522 3.51591 7.82062 3.07051C8.26602 2.62511 8.87011 2.37489 9.5 2.37489ZM11.875 11.8749H7.125C6.96753 11.8749 6.81651 11.8123 6.70516 11.701C6.59381 11.5896 6.53125 11.4386 6.53125 11.2811C6.53125 11.1237 6.59381 10.9726 6.70516 10.8613C6.81651 10.7499 6.96753 10.6874 7.125 10.6874H11.875C12.0325 10.6874 12.1835 10.7499 12.2948 10.8613C12.4062 10.9726 12.4688 11.1237 12.4688 11.2811C12.4688 11.4386 12.4062 11.5896 12.2948 11.701C12.1835 11.8123 12.0325 11.8749 11.875 11.8749ZM11.875 9.49989H7.125C6.96753 9.49989 6.81651 9.43734 6.70516 9.32599C6.59381 9.21464 6.53125 9.06361 6.53125 8.90614C6.53125 8.74867 6.59381 8.59765 6.70516 8.4863C6.81651 8.37495 6.96753 8.31239 7.125 8.31239H11.875C12.0325 8.31239 12.1835 8.37495 12.2948 8.4863C12.4062 8.59765 12.4688 8.74867 12.4688 8.90614C12.4688 9.06361 12.4062 9.21464 12.2948 9.32599C12.1835 9.43734 12.0325 9.49989 11.875 9.49989Z" fill="#323232"/>
</svg>
