<svg width="23" height="23" viewBox="0 0 23 23" fill="none" xmlns="http://www.w3.org/2000/svg">
<path d="M11.5001 6.82812C10.5761 6.82812 9.67286 7.10212 8.90457 7.61547C8.13629 8.12882 7.53748 8.85847 7.18388 9.71214C6.83028 10.5658 6.73776 11.5052 6.91802 12.4114C7.09829 13.3177 7.54324 14.1501 8.19661 14.8035C8.84999 15.4569 9.68244 15.9018 10.5887 16.0821C11.4949 16.2624 12.4343 16.1698 13.288 15.8162C14.1417 15.4626 14.8713 14.8638 15.3847 14.0955C15.898 13.3273 16.172 12.424 16.172 11.5C16.1706 10.2614 15.6779 9.07389 14.8021 8.19805C13.9262 7.32222 12.7387 6.82954 11.5001 6.82812ZM11.5001 14.0156C11.0026 14.0156 10.5162 13.8681 10.1025 13.5917C9.68883 13.3152 9.36639 12.9224 9.17599 12.4627C8.98559 12.003 8.93577 11.4972 9.03284 11.0092C9.12991 10.5212 9.3695 10.073 9.72131 9.72118C10.0731 9.36936 10.5214 9.12977 11.0094 9.0327C11.4973 8.93564 12.0031 8.98546 12.4628 9.17586C12.9225 9.36626 13.3154 9.68869 13.5918 10.1024C13.8682 10.5161 14.0158 11.0024 14.0158 11.5C14.0158 12.1672 13.7507 12.807 13.2789 13.2788C12.8072 13.7506 12.1673 14.0156 11.5001 14.0156ZM21.7297 9.56206C21.6993 9.41021 21.6366 9.26668 21.5457 9.14126C21.4549 9.01583 21.3381 8.91146 21.2033 8.83523L18.7065 7.4112L18.6966 4.5982C18.6961 4.44212 18.6616 4.28802 18.5957 4.14656C18.5298 4.00509 18.4339 3.87962 18.3148 3.77882C17.3086 2.92753 16.1501 2.27481 14.9007 1.85527C14.7582 1.80719 14.6072 1.78947 14.4574 1.80324C14.3076 1.81701 14.1624 1.86197 14.031 1.93523L11.5001 3.34847L8.96923 1.93433C8.83769 1.86067 8.69217 1.81541 8.54206 1.80149C8.39195 1.78756 8.24059 1.80527 8.09775 1.85347C6.84798 2.27475 5.68947 2.92931 4.68368 3.78241C4.56492 3.8831 4.46937 4.00832 4.40361 4.14945C4.33785 4.29059 4.30344 4.44429 4.30275 4.59999L4.29017 7.4157L1.797 8.83612C1.66216 8.91264 1.5454 9.01734 1.4547 9.14309C1.364 9.26883 1.30148 9.41266 1.27142 9.56476C1.0176 10.8433 1.0176 12.1593 1.27142 13.4379C1.30172 13.5897 1.36434 13.7332 1.45504 13.8586C1.54573 13.984 1.66236 14.0884 1.797 14.1648L4.29646 15.5888L4.30634 18.4018C4.30688 18.5579 4.34131 18.712 4.40723 18.8534C4.47316 18.9949 4.56901 19.1204 4.68818 19.2212C5.69433 20.0725 6.85283 20.7252 8.10224 21.1447C8.24476 21.1928 8.39576 21.2105 8.54554 21.1967C8.69532 21.183 8.84056 21.138 8.97193 21.0648L11.5001 19.6515L14.0283 21.0657C14.1599 21.1393 14.3054 21.1846 14.4555 21.1985C14.6056 21.2124 14.757 21.1947 14.8998 21.1465C16.1496 20.7252 17.3081 20.0707 18.3139 19.2176C18.4326 19.1169 18.5282 18.9917 18.594 18.8505C18.6597 18.7094 18.6941 18.5557 18.6948 18.4L18.7074 15.5843L21.2059 14.1639C21.3408 14.0873 21.4576 13.9826 21.5483 13.8569C21.639 13.7312 21.7015 13.5873 21.7315 13.4352C21.9848 12.1565 21.9841 10.8405 21.7297 9.56206ZM19.6966 12.5431L17.2816 13.9159C17.11 14.0132 16.9685 14.1558 16.8728 14.3283C16.8243 14.4181 16.7731 14.5017 16.72 14.587C16.6136 14.757 16.5566 14.9534 16.5556 15.1539L16.5431 17.8789C15.9618 18.3163 15.3253 18.6749 14.65 18.9453L12.2108 17.5806C12.0499 17.4905 11.8687 17.4432 11.6843 17.4432H11.6583C11.5558 17.4432 11.4516 17.4432 11.3492 17.4432C11.1565 17.4386 10.9661 17.4854 10.7976 17.5788L8.3556 18.9409C7.67921 18.6717 7.04123 18.3147 6.4581 17.8789L6.44821 15.162C6.44738 14.9611 6.39044 14.7645 6.2838 14.5942C6.23169 14.5098 6.17958 14.4226 6.13107 14.3355C6.03523 14.1641 5.89412 14.0224 5.72318 13.9258L3.30638 12.5449C3.21249 11.8521 3.21249 11.1497 3.30638 10.4569L5.72138 9.08409C5.89267 8.98685 6.03405 8.84454 6.13017 8.67261C6.17868 8.58277 6.22989 8.49831 6.2829 8.41296C6.38938 8.24296 6.44632 8.04663 6.44732 7.84605L6.4572 5.12109C7.03863 4.68497 7.67514 4.32759 8.35021 4.05823L10.7895 5.42296C10.958 5.51749 11.1489 5.56467 11.342 5.55952C11.4444 5.55952 11.5486 5.55952 11.6511 5.55952C11.8437 5.56408 12.0341 5.51726 12.2027 5.42386L14.6447 4.05913C15.321 4.32827 15.959 4.68532 16.5422 5.12109L16.552 7.83796C16.5529 8.03885 16.6098 8.23552 16.7165 8.40577C16.7686 8.49023 16.8207 8.57738 16.8692 8.66452C16.965 8.8359 17.1061 8.97762 17.2771 9.07421L19.6939 10.4515C19.789 11.1454 19.7899 11.849 19.6966 12.5431Z" fill="#ADADAD"/>
</svg>
