<svg width="23" height="23" viewBox="0 0 23 23" fill="none" xmlns="http://www.w3.org/2000/svg">
<path d="M20.3636 0.983058L9.88246 0.0039009C9.70316 -0.0128536 9.52326 0.0290023 9.36977 0.123185L0.397371 5.62854C0.248491 5.7199 0.13213 5.85578 0.0647731 6.01695C-0.00258395 6.17811 -0.0175224 6.35639 0.0220739 6.52651L1.90799 14.6322C1.95801 14.8471 2.09138 15.0334 2.27875 15.1501C2.46613 15.2667 2.69217 15.3041 2.90715 15.2541C3.12212 15.2041 3.30842 15.0707 3.42506 14.8834C3.54171 14.696 3.57914 14.47 3.52912 14.255L1.90487 7.27399L5.57202 7.61592C5.00769 9.28714 5.12963 11.114 5.91109 12.6954C6.69255 14.2768 8.06963 15.4834 9.73998 16.0504C8.08264 17.19 6.80713 18.8507 6.06571 20.888C6.02648 20.9911 6.00813 21.101 6.01173 21.2112C6.01532 21.3214 6.04079 21.4298 6.08666 21.5301C6.13253 21.6304 6.19787 21.7206 6.2789 21.7955C6.35992 21.8703 6.45502 21.9283 6.55864 21.966C6.66227 22.0038 6.77237 22.0205 6.88254 22.0154C6.99271 22.0102 7.10075 21.9832 7.20038 21.9359C7.30002 21.8886 7.38925 21.8219 7.46291 21.7399C7.53657 21.6578 7.59317 21.5619 7.62944 21.4577C8.61131 18.7599 10.7104 16.8563 13.3883 16.2333C16.0662 15.6102 18.79 16.3917 20.8619 18.3789C21.0219 18.528 21.2341 18.6081 21.4527 18.6019C21.6713 18.5957 21.8786 18.5037 22.0299 18.3459C22.1812 18.188 22.2643 17.977 22.2613 17.7583C22.2582 17.5397 22.1692 17.3311 22.0136 17.1775C20.4489 15.6767 18.5653 14.7511 16.5811 14.4587C17.8283 13.213 18.5305 11.5235 18.5338 9.76084C18.5371 7.99815 17.8413 6.30607 16.5989 5.05566L20.7226 2.52617C20.8715 2.43484 20.9879 2.29896 21.0553 2.13778C21.1227 1.97661 21.1377 1.79831 21.0981 1.62816C21.0585 1.458 20.9664 1.30462 20.8348 1.18975C20.7031 1.07488 20.5387 1.00434 20.3648 0.988124L20.3636 0.983058ZM16.7429 8.61722C16.922 9.38605 16.9163 10.1864 16.7262 10.9526C16.5361 11.7188 16.1671 12.429 15.6494 13.0249C15.1316 13.6208 14.48 14.0855 13.7479 14.3809C13.0158 14.6762 12.2241 14.7937 11.4378 14.7238C10.6515 14.654 9.89298 14.3986 9.22445 13.9788C8.55591 13.559 7.99644 12.9867 7.59194 12.3088C7.18743 11.6309 6.94942 10.8667 6.89743 10.079C6.84543 9.29133 6.98094 8.50253 7.29283 7.77734L11.2354 8.14169C11.4147 8.15845 11.5946 8.11659 11.7481 8.02241L15.1249 5.95507C15.935 6.64667 16.502 7.57969 16.7429 8.61722Z" fill="#DCC89C" fill-opacity="0.7"/>
</svg>
