<svg width="589" height="145" viewBox="0 0 589 145" fill="none" xmlns="http://www.w3.org/2000/svg">
<rect width="589" height="145" rx="14" fill="#F3EDDF"/>
<path d="M64.2194 40.3026C62.9659 38.9369 61.4527 37.8347 59.7683 37.0605C58.0839 36.2862 56.2621 35.8555 54.4093 35.7935L54.3567 35.7918C52.5125 35.7268 50.6737 36.0284 48.9469 36.6789C47.22 37.3295 45.6393 38.3162 44.2964 39.5819L34.187 49.1755C33.6976 49.6392 33.4116 50.2776 33.3914 50.9515C33.3712 51.6253 33.6184 52.2798 34.0791 52.7719L38.4984 57.4896C38.7271 57.7349 39.0022 57.9325 39.3077 58.0709C39.6133 58.2094 39.9432 58.2859 40.2784 58.2961L40.2928 58.2966C40.6305 58.3058 40.9667 58.2478 41.2819 58.1261C41.597 58.0043 41.8849 57.8212 42.1287 57.5874L52.1611 47.9577C52.6504 47.5039 53.2974 47.2587 53.9646 47.2742C54.6318 47.2898 55.2667 47.5648 55.7344 48.0409C55.9654 48.2804 56.146 48.5639 56.2655 48.8745C56.385 49.1851 56.441 49.5166 56.4301 49.8492C56.4218 50.2033 56.3437 50.5523 56.2003 50.8762C56.0569 51.2001 55.8511 51.4925 55.5945 51.7368L45.352 61.0101C45.1018 61.2377 44.8993 61.5127 44.7563 61.8193C44.6134 62.1258 44.5328 62.4576 44.5192 62.7956C44.5056 63.1335 44.5594 63.4708 44.6773 63.7878C44.7953 64.1048 44.9751 64.3951 45.2062 64.642L49.6255 69.3597C50.0863 69.8486 50.7208 70.1368 51.3922 70.1623C52.0635 70.1879 52.718 69.9486 53.2146 69.496L63.3803 60.1819C69.0513 54.8618 69.427 45.9476 64.2194 40.3026ZM40.3618 55.7425L35.9441 51.0265L40.7889 46.4278L45.1804 51.1159L40.3618 55.7425ZM51.4857 67.6125L47.0632 62.8963L52.0176 58.4098L56.4108 63.0978L51.4857 67.6125Z" fill="#D7D0BF"/>
<path d="M102.54 115.891L90.7311 96.2034V85.3078H92.2624C92.6686 85.3078 93.0581 85.1465 93.3453 84.8593C93.6324 84.5721 93.7938 84.1826 93.7938 83.7765C93.7938 83.3703 93.6324 82.9808 93.3453 82.6936C93.0581 82.4065 92.6686 82.2451 92.2624 82.2451H76.9489C76.5427 82.2451 76.1532 82.4065 75.8661 82.6936C75.5789 82.9808 75.4175 83.3703 75.4175 83.7765C75.4175 84.1826 75.5789 84.5721 75.8661 84.8593C76.1532 85.1465 76.5427 85.3078 76.9489 85.3078H78.4802V96.2034L66.6716 115.891C66.3931 116.355 66.2426 116.885 66.2356 117.426C66.2286 117.968 66.3652 118.501 66.6315 118.973C66.8979 119.444 67.2844 119.837 67.7518 120.11C68.2192 120.383 68.7507 120.528 69.2921 120.529H99.9192C100.461 120.529 100.993 120.385 101.462 120.112C101.93 119.839 102.317 119.447 102.584 118.975C102.851 118.504 102.988 117.97 102.981 117.428C102.975 116.886 102.824 116.356 102.545 115.891H102.54ZM85.2967 107.677C82.2512 106.136 79.3531 105.319 76.6407 105.225L81.3247 97.4151C81.468 97.1777 81.5434 96.9056 81.543 96.6284V85.3078H87.6684V96.6284C87.6679 96.9056 87.7434 97.1777 87.8866 97.4151L95.2026 109.618C92.9133 110.066 89.6381 109.875 85.2967 107.677Z" fill="#CAB79B" fill-opacity="0.5"/>
<path d="M155.602 74.2385L130.795 95.3637C130.197 95.873 129.826 96.5991 129.763 97.3822C129.7 98.1653 129.951 98.9412 130.461 99.5393L147.745 119.836C148.254 120.434 148.98 120.805 149.763 120.868C150.546 120.93 151.322 120.68 151.92 120.17L176.727 99.045C177.325 98.5357 177.696 97.8096 177.759 97.0265C177.822 96.2434 177.571 95.4675 177.062 94.8694L159.777 74.5732C159.268 73.9751 158.542 73.6038 157.759 73.541C156.976 73.4783 156.2 73.7292 155.602 74.2385ZM167.907 92.0345C167.751 93.9846 166.829 95.7936 165.343 97.0665C163.858 98.3394 161.929 98.9727 159.978 98.8281L147.433 98.5423L147.351 98.5292C146.476 98.4606 145.6 98.6529 144.833 99.0818C144.067 99.5108 143.445 100.157 143.046 100.939C142.647 101.722 142.489 102.604 142.591 103.477C142.693 104.349 143.052 105.171 143.621 105.839C144.191 106.508 144.945 106.993 145.79 107.233C146.635 107.473 147.531 107.457 148.367 107.188C149.203 106.918 149.94 106.407 150.486 105.719C151.031 105.031 151.361 104.197 151.432 103.321C151.44 103.227 151.445 103.133 151.441 103.046C151.445 102.852 151.486 102.66 151.564 102.481C151.642 102.303 151.754 102.141 151.894 102.006C152.034 101.871 152.2 101.765 152.381 101.694C152.562 101.623 152.755 101.588 152.95 101.591C153.144 101.595 153.336 101.637 153.515 101.714C153.693 101.792 153.855 101.904 153.99 102.044C154.125 102.184 154.231 102.35 154.302 102.531C154.373 102.712 154.408 102.905 154.405 103.1C154.402 103.253 154.393 103.409 154.381 103.56C154.264 105.018 153.718 106.409 152.812 107.558C151.906 108.706 150.68 109.56 149.289 110.012C147.898 110.464 146.404 110.494 144.995 110.099C143.587 109.703 142.328 108.899 141.376 107.788C140.424 106.677 139.823 105.309 139.648 103.857C139.472 102.405 139.731 100.933 140.391 99.6276C141.052 98.3222 142.084 97.2417 143.357 96.5222C144.631 95.8027 146.089 95.4765 147.548 95.5849L160.091 95.8718L160.175 95.8759C161.051 95.9438 161.927 95.7507 162.692 95.3211C163.458 94.8914 164.08 94.2445 164.478 93.462C164.876 92.6795 165.034 91.7964 164.931 90.9244C164.828 90.0524 164.469 89.2304 163.899 88.5624C163.329 87.8944 162.574 87.4102 161.729 87.171C160.884 86.9318 159.987 86.9484 159.151 87.2185C158.316 87.4887 157.579 88.0004 157.034 88.6889C156.489 89.3775 156.161 90.2121 156.09 91.0874C156.082 91.1813 156.078 91.2729 156.081 91.3624C156.074 91.7553 155.911 92.1293 155.629 92.4022C155.346 92.6751 154.966 92.8245 154.574 92.8175C154.181 92.8106 153.807 92.6479 153.534 92.3652C153.261 92.0825 153.112 91.703 153.118 91.3102C153.12 91.158 153.128 91.001 153.141 90.8484C153.318 88.9069 154.254 87.1136 155.745 85.8577C157.237 84.6019 159.163 83.9848 161.106 84.1404C163.05 84.2959 164.854 85.2117 166.126 86.6888C167.398 88.1659 168.037 90.0852 167.903 92.0302L167.907 92.0345Z" fill="#E2C7AB" fill-opacity="0.8"/>
<path d="M122.916 19.5759C124.503 17.8315 127.247 17.8315 128.834 19.5759L129.566 20.3804C130.629 21.549 132.28 21.9824 133.78 21.4868L134.887 21.1208C137.166 20.3676 139.591 21.7773 140.064 24.1306L140.198 24.7972C140.521 26.4053 141.793 27.6532 143.407 27.9452L144.227 28.0934C146.671 28.5356 148.126 31.076 147.27 33.4081L147.153 33.7272C146.565 35.3262 147.055 37.1216 148.373 38.2007L148.694 38.4629C150.648 40.0633 150.648 43.0524 148.694 44.6528L148.373 44.9149C147.055 45.994 146.565 47.7894 147.153 49.3885L147.27 49.7075C148.126 52.0396 146.671 54.58 144.227 55.0223L143.407 55.1705C141.793 55.4625 140.521 56.7103 140.198 58.3185L140.064 58.985C139.591 61.3383 137.166 62.748 134.887 61.9949L133.78 61.6289C132.28 61.1332 130.629 61.5667 129.566 62.7352L128.834 63.5397C127.247 65.2842 124.503 65.2842 122.916 63.5397L122.184 62.7352C121.121 61.5667 119.47 61.1332 117.97 61.6289L116.863 61.9949C114.584 62.748 112.159 61.3383 111.686 58.985L111.552 58.3185C111.229 56.7103 109.957 55.4625 108.342 55.1705L107.523 55.0223C105.078 54.58 103.624 52.0396 104.48 49.7075L104.597 49.3885C105.184 47.7894 104.694 45.994 103.377 44.9149L103.056 44.6528C101.102 43.0524 101.102 40.0633 103.056 38.4629L103.377 38.2007C104.694 37.1216 105.184 35.3262 104.597 33.7272L104.48 33.4081C103.624 31.076 105.078 28.5356 107.523 28.0934L108.342 27.9452C109.957 27.6532 111.229 26.4053 111.552 24.7972L111.686 24.1306C112.159 21.7773 114.584 20.3676 116.863 21.1208L117.97 21.4868C119.47 21.9824 121.121 21.549 122.184 20.3804L122.916 19.5759Z" fill="#D9D7A8" fill-opacity="0.8"/>
<path d="M202.523 33.3649L192.042 32.3857C191.862 32.369 191.682 32.4108 191.529 32.505L182.557 38.0104C182.408 38.1017 182.291 38.2376 182.224 38.3988C182.157 38.5599 182.142 38.7382 182.181 38.9084L184.067 47.014C184.117 47.229 184.251 47.4153 184.438 47.5319C184.625 47.6486 184.851 47.686 185.066 47.636C185.281 47.5859 185.468 47.4526 185.584 47.2652C185.701 47.0778 185.738 46.8518 185.688 46.6368L184.064 39.6558L187.731 39.9978C187.167 41.669 187.289 43.4959 188.07 45.0772C188.852 46.6586 190.229 47.8653 191.899 48.4322C190.242 49.5719 188.966 51.2326 188.225 53.2699C188.186 53.373 188.167 53.4828 188.171 53.593C188.175 53.7033 188.2 53.8117 188.246 53.912C188.292 54.0123 188.357 54.1025 188.438 54.1773C188.519 54.2521 188.614 54.3101 188.718 54.3478C188.821 54.3856 188.932 54.4024 189.042 54.3972C189.152 54.392 189.26 54.365 189.36 54.3177C189.459 54.2704 189.548 54.2038 189.622 54.1217C189.696 54.0396 189.752 53.9437 189.789 53.8395C190.77 51.1417 192.87 49.2382 195.547 48.6151C198.225 47.9921 200.949 48.7735 203.021 50.7608C203.181 50.9098 203.393 50.9899 203.612 50.9837C203.83 50.9775 204.038 50.8856 204.189 50.7277C204.34 50.5699 204.424 50.3588 204.42 50.1402C204.417 49.9215 204.328 49.7129 204.173 49.5593C202.608 48.0586 200.724 47.1329 198.74 46.8405C199.987 45.5948 200.69 43.9054 200.693 42.1427C200.696 40.38 200 38.6879 198.758 37.4375L202.882 34.908C203.031 34.8167 203.147 34.6808 203.215 34.5196C203.282 34.3584 203.297 34.1801 203.257 34.01C203.218 33.8398 203.126 33.6865 202.994 33.5716C202.862 33.4567 202.698 33.3862 202.524 33.37L202.523 33.3649ZM198.902 40.9991C199.081 41.7679 199.075 42.5682 198.885 43.3344C198.695 44.1006 198.326 44.8108 197.809 45.4067C197.291 46.0027 196.639 46.4674 195.907 46.7627C195.175 47.058 194.383 47.1756 193.597 47.1057C192.811 47.0358 192.052 46.7805 191.384 46.3607C190.715 45.9408 190.156 45.3685 189.751 44.6906C189.347 44.0127 189.109 43.2486 189.057 42.4609C189.005 41.6732 189.14 40.8844 189.452 40.1592L193.395 40.5235C193.574 40.5403 193.754 40.4984 193.907 40.4042L197.284 38.3369C198.094 39.0285 198.661 39.9615 198.902 40.9991Z" fill="#DCC89C" fill-opacity="0.7"/>
</svg>
