<svg width="49" height="48" viewBox="0 0 49 48" fill="none" xmlns="http://www.w3.org/2000/svg">
<path d="M25.8478 0.707243L1.04127 21.8325C0.443171 22.3418 0.0719029 23.0679 0.00914118 23.851C-0.0536206 24.634 0.197265 25.41 0.706607 26.0081L17.9909 46.3043C18.5002 46.9024 19.2263 47.2737 20.0094 47.3364C20.7924 47.3992 21.5684 47.1483 22.1665 46.639L46.973 25.5138C47.5711 25.0044 47.9424 24.2784 48.0051 23.4953C48.0679 22.7122 47.817 21.9363 47.3077 21.3382L30.0234 1.04191C29.5141 0.443809 28.788 0.0725419 28.0049 0.00978007C27.2218 -0.0529817 26.4459 0.197901 25.8478 0.707243ZM38.1529 18.5032C37.9967 20.4533 37.0752 22.2624 35.5896 23.5353C34.104 24.8082 32.175 25.4415 30.224 25.2968L17.679 25.0111L17.5973 24.9979C16.7219 24.9293 15.8458 25.1216 15.0796 25.5506C14.3134 25.9795 13.6914 26.6259 13.2923 27.4081C12.8932 28.1903 12.7349 29.0731 12.8372 29.9453C12.9395 30.8174 13.298 31.6396 13.8673 32.3082C14.4366 32.9767 15.1913 33.4616 16.036 33.7015C16.8807 33.9414 17.7775 33.9257 18.6133 33.6563C19.449 33.3868 20.1862 32.8758 20.7317 32.1877C21.2772 31.4996 21.6066 30.6653 21.6783 29.7901C21.6858 29.6962 21.6908 29.602 21.6872 29.515C21.6908 29.3204 21.7326 29.1285 21.8103 28.95C21.888 28.7716 22.0001 28.6102 22.1402 28.4751C22.2803 28.34 22.4456 28.2338 22.6268 28.1626C22.8079 28.0914 23.0013 28.0565 23.1959 28.06C23.3905 28.0636 23.5825 28.1054 23.7609 28.1831C23.9394 28.2608 24.1007 28.373 24.2359 28.513C24.371 28.6531 24.4772 28.8185 24.5484 28.9996C24.6196 29.1807 24.6544 29.3741 24.6509 29.5687C24.6478 29.7221 24.6393 29.8777 24.6271 30.0291C24.5105 31.4872 23.9645 32.8781 23.0583 34.0264C22.152 35.1746 20.9259 36.0287 19.5348 36.4809C18.1436 36.9331 16.6497 36.9632 15.2415 36.5673C13.8333 36.1714 12.5739 35.3674 11.6221 34.2565C10.6704 33.1457 10.0689 31.7778 9.89369 30.3256C9.71845 28.8733 9.97726 27.4017 10.6375 26.0963C11.2976 24.791 12.3297 23.7104 13.6033 22.9909C14.8769 22.2714 16.3351 21.9453 17.7939 22.0536L30.3375 22.3406L30.4212 22.3447C31.2967 22.4125 32.1726 22.2195 32.9385 21.7898C33.7043 21.3602 34.3256 20.7133 34.724 19.9307C35.1224 19.1482 35.28 18.2652 35.1769 17.3932C35.0738 16.5211 34.7146 15.6992 34.1447 15.0312C33.5748 14.3631 32.8197 13.8789 31.9748 13.6398C31.1299 13.4006 30.2331 13.4171 29.3976 13.6873C28.5621 13.9574 27.8253 14.4691 27.2804 15.1577C26.7355 15.8463 26.4069 16.6809 26.336 17.5561C26.3284 17.6501 26.3237 17.7416 26.3271 17.8312C26.3201 18.224 26.1574 18.598 25.8747 18.8709C25.592 19.1438 25.2125 19.2932 24.8197 19.2863C24.4268 19.2794 24.0528 19.1166 23.78 18.834C23.5071 18.5513 23.3577 18.1718 23.3646 17.7789C23.3663 17.6267 23.3736 17.4697 23.3872 17.3171C23.5645 15.3756 24.5003 13.5823 25.9916 12.3265C27.4828 11.0706 29.4092 10.4535 31.3526 10.6091C33.296 10.7647 35.0996 11.6804 36.3721 13.1575C37.6446 14.6346 38.2832 16.554 38.1493 18.499L38.1529 18.5032Z" fill="#E2C7AB" fill-opacity="0.8"/>
</svg>
