<svg width="35" height="35" viewBox="0 0 35 35" fill="none" xmlns="http://www.w3.org/2000/svg">
<path d="M30.8288 4.51945C29.5753 3.15368 28.0621 2.05147 26.3777 1.27725C24.6933 0.503033 22.8715 0.0723352 21.0187 0.0103331L20.9661 0.00861536C19.1219 -0.0563537 17.2831 0.245175 15.5563 0.895742C13.8294 1.54631 12.2487 2.53299 10.9058 3.79865L0.796389 13.3923C0.306992 13.856 0.0209507 14.4944 0.000740102 15.1683C-0.0194705 15.8421 0.227791 16.4966 0.688522 16.9887L5.1078 21.7064C5.33652 21.9517 5.61159 22.1493 5.91711 22.2877C6.22263 22.4262 6.55255 22.5027 6.88782 22.5129L6.90217 22.5134C7.23989 22.5226 7.57608 22.4646 7.89124 22.3429C8.20639 22.2211 8.49423 22.038 8.73806 21.8042L18.7705 12.1745C19.2598 11.7207 19.9068 11.4755 20.574 11.491C21.2412 11.5066 21.876 11.7816 22.3437 12.2577C22.5748 12.4972 22.7554 12.7807 22.8749 13.0913C22.9944 13.4019 23.0503 13.7334 23.0395 14.066C23.0311 14.4201 22.9531 14.7691 22.8097 15.093C22.6663 15.4169 22.4604 15.7093 22.2039 15.9536L11.9613 25.2269C11.7111 25.4545 11.5087 25.7295 11.3657 26.0361C11.2227 26.3426 11.1421 26.6744 11.1286 27.0124C11.115 27.3503 11.1688 27.6876 11.2867 28.0046C11.4047 28.3216 11.5845 28.6119 11.8156 28.8588L16.2349 33.5765C16.6957 34.0654 17.3302 34.3536 18.0016 34.3791C18.6729 34.4046 19.3274 34.1653 19.824 33.7128L29.9897 24.3987C35.6607 19.0786 36.0364 10.1644 30.8288 4.51945ZM6.97121 19.9593L2.55347 15.2433L7.39825 10.6446L11.7898 15.3327L6.97121 19.9593ZM18.0951 31.8293L13.6726 27.1131L18.627 22.6266L23.0201 27.3146L18.0951 31.8293Z" fill="#D7D0BF"/>
</svg>
