<svg width="22" height="22" viewBox="0 0 22 22" fill="none" xmlns="http://www.w3.org/2000/svg">
<path d="M19.9375 18.5625C19.9375 18.7448 19.8651 18.9197 19.7361 19.0486C19.6072 19.1776 19.4323 19.25 19.25 19.25H2.75C2.56766 19.25 2.3928 19.1776 2.26386 19.0486C2.13493 18.9197 2.0625 18.7448 2.0625 18.5625C2.0625 18.3802 2.13493 18.2053 2.26386 18.0764C2.3928 17.9474 2.56766 17.875 2.75 17.875H15.5762C16.5253 17.1076 17.2262 16.0766 17.5908 14.9118C17.9554 13.747 17.9674 12.5004 17.6252 11.3288C17.283 10.1573 16.602 9.11305 15.6678 8.32758C14.7336 7.54211 13.5879 7.05048 12.375 6.91453V11.6875C12.375 12.0522 12.2301 12.4019 11.9723 12.6598C11.7144 12.9176 11.3647 13.0625 11 13.0625H6.875C6.51033 13.0625 6.16059 12.9176 5.90273 12.6598C5.64487 12.4019 5.5 12.0522 5.5 11.6875V2.75C5.5 2.38533 5.64487 2.03559 5.90273 1.77773C6.16059 1.51987 6.51033 1.375 6.875 1.375H11C11.3647 1.375 11.7144 1.51987 11.9723 1.77773C12.2301 2.03559 12.375 2.38533 12.375 2.75V5.5318C13.7446 5.65753 15.0541 6.15418 16.1625 6.96835C17.271 7.78252 18.1367 8.88343 18.6664 10.1527C19.1961 11.422 19.3698 12.8116 19.1689 14.1722C18.968 15.5329 18.4 16.813 17.5261 17.875H19.25C19.4323 17.875 19.6072 17.9474 19.7361 18.0764C19.8651 18.2053 19.9375 18.3802 19.9375 18.5625ZM11.6875 15.8125C11.8698 15.8125 12.0447 15.7401 12.1736 15.6111C12.3026 15.4822 12.375 15.3073 12.375 15.125C12.375 14.9427 12.3026 14.7678 12.1736 14.6389C12.0447 14.5099 11.8698 14.4375 11.6875 14.4375H6.1875C6.00516 14.4375 5.8303 14.5099 5.70136 14.6389C5.57243 14.7678 5.5 14.9427 5.5 15.125C5.5 15.3073 5.57243 15.4822 5.70136 15.6111C5.8303 15.7401 6.00516 15.8125 6.1875 15.8125H11.6875Z" fill="#323232"/>
</svg>
