<svg width="43" height="43" viewBox="0 0 43 43" fill="none" xmlns="http://www.w3.org/2000/svg">
<rect width="42.6953" height="42.6953" rx="21.3477" fill="#CFE8E2"/>
<path d="M30.0736 21.7446C29.9276 23.4427 29.2996 25.0638 28.2635 26.4171C27.2274 27.7704 25.8264 28.7996 24.2252 29.3837C22.6241 29.9678 20.8894 30.0825 19.2253 29.7142C17.5612 29.3459 16.0369 28.51 14.8317 27.3048C13.6265 26.0997 12.7906 24.5754 12.4223 22.9112C12.054 21.2471 12.1687 19.5125 12.7528 17.9113C13.3369 16.3101 14.3661 14.9091 15.7195 13.873C17.0728 12.837 18.6938 12.2089 20.3919 12.0629C20.4822 12.0554 20.5731 12.0658 20.6593 12.0935C20.7456 12.1212 20.8256 12.1656 20.8947 12.2241C20.9638 12.2827 21.0207 12.3543 21.0621 12.4349C21.1035 12.5154 21.1287 12.6034 21.1361 12.6937C21.1436 12.7839 21.1332 12.8748 21.1055 12.9611C21.0778 13.0473 21.0335 13.1273 20.9749 13.1964C20.9163 13.2655 20.8447 13.3224 20.7641 13.3638C20.6836 13.4053 20.5956 13.4304 20.5054 13.4379C19.0681 13.5614 17.6961 14.0928 16.5506 14.9696C15.4052 15.8464 14.534 17.0322 14.0395 18.3873C13.5451 19.7424 13.448 21.2106 13.7597 22.6191C14.0714 24.0275 14.7788 25.3177 15.7988 26.3377C16.8189 27.3577 18.109 28.0652 19.5175 28.3768C20.9259 28.6885 22.3941 28.5914 23.7492 28.097C25.1044 27.6026 26.2901 26.7314 27.1669 25.5859C28.0437 24.4405 28.5752 23.0684 28.6986 21.6312C28.7137 21.4488 28.8005 21.2799 28.9401 21.1616C29.0797 21.0433 29.2605 20.9853 29.4429 21.0004C29.6252 21.0154 29.7941 21.1023 29.9124 21.2419C30.0307 21.3814 30.0887 21.5623 30.0736 21.7446ZM20.4486 16.1879V21.0004C20.4486 21.1827 20.5211 21.3576 20.65 21.4865C20.7789 21.6154 20.9538 21.6879 21.1361 21.6879H25.9486C26.131 21.6879 26.3058 21.6154 26.4348 21.4865C26.5637 21.3576 26.6361 21.1827 26.6361 21.0004C26.6361 20.818 26.5637 20.6432 26.4348 20.5142C26.3058 20.3853 26.131 20.3129 25.9486 20.3129H21.8236V16.1879C21.8236 16.0055 21.7512 15.8307 21.6223 15.7017C21.4934 15.5728 21.3185 15.5004 21.1361 15.5004C20.9538 15.5004 20.7789 15.5728 20.65 15.7017C20.5211 15.8307 20.4486 16.0055 20.4486 16.1879ZM23.8861 14.1254C24.0901 14.1254 24.2895 14.0649 24.4591 13.9516C24.6287 13.8383 24.7608 13.6772 24.8389 13.4888C24.9169 13.3003 24.9374 13.093 24.8976 12.8929C24.8578 12.6929 24.7596 12.5092 24.6153 12.3649C24.4711 12.2207 24.2874 12.1225 24.0873 12.0827C23.8873 12.0429 23.6799 12.0633 23.4915 12.1414C23.3031 12.2194 23.142 12.3516 23.0287 12.5212C22.9154 12.6908 22.8549 12.8902 22.8549 13.0941C22.8549 13.3676 22.9635 13.6299 23.1569 13.8233C23.3503 14.0167 23.6126 14.1254 23.8861 14.1254ZM26.9799 16.1879C27.1839 16.1879 27.3832 16.1274 27.5528 16.0141C27.7224 15.9008 27.8546 15.7397 27.9326 15.5513C28.0107 15.3628 28.0311 15.1555 27.9913 14.9554C27.9515 14.7554 27.8533 14.5717 27.7091 14.4274C27.5649 14.2832 27.3811 14.185 27.1811 14.1452C26.981 14.1054 26.7737 14.1258 26.5853 14.2039C26.3968 14.2819 26.2358 14.4141 26.1224 14.5837C26.0091 14.7533 25.9486 14.9527 25.9486 15.1566C25.9486 15.4301 26.0573 15.6924 26.2507 15.8858C26.4441 16.0792 26.7064 16.1879 26.9799 16.1879ZM29.0424 19.2816C29.2464 19.2816 29.4457 19.2212 29.6153 19.1078C29.7849 18.9945 29.9171 18.8335 29.9951 18.645C30.0732 18.4566 30.0936 18.2492 30.0538 18.0492C30.014 17.8492 29.9158 17.6654 29.7716 17.5212C29.6274 17.377 29.4436 17.2787 29.2436 17.2389C29.0435 17.1992 28.8362 17.2196 28.6478 17.2976C28.4593 17.3757 28.2983 17.5079 28.1849 17.6775C28.0716 17.847 28.0111 18.0464 28.0111 18.2504C28.0111 18.5239 28.1198 18.7862 28.3132 18.9796C28.5066 19.173 28.7689 19.2816 29.0424 19.2816Z" fill="#242929"/>
</svg>
