<svg width="33" height="33" viewBox="0 0 33 33" fill="none" xmlns="http://www.w3.org/2000/svg">
<rect x="0.5" y="0.5" width="31.6243" height="31.6243" rx="7.5" stroke="#EDEDED"/>
<path d="M10.7489 16.5786H23.0784C23.1562 16.5786 23.2309 16.5477 23.286 16.4926C23.341 16.4376 23.3719 16.3629 23.3719 16.2851V14.2302C23.372 14.153 23.3569 14.0766 23.3274 14.0054C23.2979 13.9341 23.2547 13.8693 23.2002 13.8148L19.0904 9.70494C19.0358 9.65043 18.9711 9.60721 18.8998 9.57774C18.8285 9.54828 18.7521 9.53314 18.675 9.5332H11.6296C11.3181 9.5332 11.0195 9.65692 10.7993 9.87713C10.5791 10.0973 10.4553 10.396 10.4553 10.7074V16.2851C10.4553 16.3629 10.4863 16.4376 10.5413 16.4926C10.5964 16.5477 10.671 16.5786 10.7489 16.5786ZM18.675 11.001L21.9042 14.2302H18.675V11.001ZM23.9591 18.966C23.9459 19.1169 23.8762 19.2573 23.7639 19.359C23.6516 19.4606 23.5051 19.5161 23.3536 19.5142H21.6106V20.6885H22.765C22.9165 20.6864 23.0632 20.7418 23.1755 20.8435C23.2879 20.9452 23.3575 21.0857 23.3705 21.2367C23.3758 21.317 23.3646 21.3975 23.3375 21.4733C23.3104 21.5491 23.268 21.6185 23.2129 21.6772C23.1578 21.7359 23.0913 21.7827 23.0174 21.8146C22.9435 21.8465 22.8638 21.8629 22.7834 21.8627H21.6106V23.0171C21.6126 23.1686 21.5572 23.3153 21.4555 23.4276C21.3538 23.54 21.2133 23.6096 21.0624 23.6226C20.9821 23.6279 20.9015 23.6167 20.8257 23.5896C20.7499 23.5625 20.6805 23.5201 20.6218 23.465C20.5631 23.4099 20.5164 23.3434 20.4845 23.2695C20.4526 23.1956 20.4362 23.116 20.4364 23.0355V18.9271C20.4364 18.7714 20.4982 18.6221 20.6083 18.5119C20.7184 18.4018 20.8678 18.34 21.0235 18.34H23.3719C23.4524 18.3398 23.5321 18.3562 23.606 18.3881C23.6799 18.42 23.7464 18.4668 23.8015 18.5255C23.8565 18.5842 23.8989 18.6536 23.9261 18.7294C23.9532 18.8051 23.9644 18.8857 23.9591 18.966ZM12.2167 18.34H11.0425C10.8867 18.34 10.7374 18.4018 10.6273 18.5119C10.5172 18.6221 10.4553 18.7714 10.4553 18.9271V23.0171C10.4529 23.1689 10.5082 23.3159 10.6099 23.4286C10.7116 23.5412 10.8523 23.6111 11.0036 23.6241C11.0839 23.6294 11.1644 23.6181 11.2402 23.591C11.316 23.5639 11.3854 23.5215 11.4441 23.4665C11.5028 23.4114 11.5496 23.3449 11.5815 23.271C11.6134 23.1971 11.6298 23.1174 11.6296 23.0369V22.4498H12.1727C13.2911 22.4498 14.2378 21.575 14.2709 20.4573C14.2792 20.1823 14.2323 19.9084 14.1328 19.6519C14.0333 19.3954 13.8833 19.1615 13.6918 18.964C13.5002 18.7665 13.2709 18.6096 13.0175 18.5024C12.7641 18.3952 12.4918 18.34 12.2167 18.34ZM12.191 21.2756H11.6296V19.5142H12.2167C12.3399 19.5136 12.4618 19.5389 12.5746 19.5884C12.6874 19.6379 12.7886 19.7105 12.8716 19.8015C12.9546 19.8925 13.0175 19.9999 13.0564 20.1168C13.0953 20.2337 13.1093 20.3574 13.0974 20.48C13.0717 20.7014 12.9648 20.9053 12.7974 21.0523C12.6299 21.1993 12.4138 21.2789 12.191 21.2756ZM16.9136 18.34H15.7394C15.5837 18.34 15.4344 18.4018 15.3243 18.5119C15.2141 18.6221 15.1523 18.7714 15.1523 18.9271V23.0369C15.1523 23.1926 15.2141 23.342 15.3243 23.4521C15.4344 23.5622 15.5837 23.6241 15.7394 23.6241H16.8637C18.3066 23.6241 19.5212 22.488 19.5549 21.0459C19.5635 20.6936 19.5014 20.3433 19.3725 20.0154C19.2436 19.6875 19.0504 19.3886 18.8043 19.1365C18.5582 18.8844 18.2641 18.684 17.9394 18.5472C17.6148 18.4104 17.266 18.34 16.9136 18.34ZM16.8777 22.4498H16.3265V19.5142H16.9136C17.1112 19.5141 17.3068 19.5538 17.4887 19.6311C17.6706 19.7084 17.835 19.8216 17.972 19.9639C18.1091 20.1063 18.216 20.2748 18.2864 20.4595C18.3567 20.6441 18.389 20.8411 18.3814 21.0385C18.3506 21.8326 17.6725 22.4498 16.8777 22.4498Z" fill="#769733"/>
</svg>
