<svg width="43" height="43" viewBox="0 0 43 43" fill="none" xmlns="http://www.w3.org/2000/svg">
<rect width="42.6953" height="42.6953" rx="21.3477" fill="#E8E7D5"/>
<path d="M27.5645 17.2206V14.3077C27.5645 13.9609 27.424 13.6283 27.1739 13.383C26.9239 13.1378 26.5847 13 26.2311 13H16.8978C16.5442 13 16.205 13.1378 15.955 13.383C15.7049 13.6283 15.5645 13.9609 15.5645 14.3077V17.25C15.5649 17.4529 15.6133 17.653 15.7058 17.8345C15.7984 18.016 15.9325 18.174 16.0978 18.2962L20.4536 21.5L16.0978 24.7038C15.9325 24.826 15.7984 24.984 15.7058 25.1655C15.6133 25.347 15.5649 25.5471 15.5645 25.75V28.6923C15.5645 29.0391 15.7049 29.3717 15.955 29.617C16.205 29.8622 16.5442 30 16.8978 30H26.2311C26.5847 30 26.9239 29.8622 27.1739 29.617C27.424 29.3717 27.5645 29.0391 27.5645 28.6923V25.7794C27.5639 25.5774 27.5159 25.3782 27.4241 25.1973C27.3323 25.0165 27.1993 24.8588 27.0353 24.7365L22.6703 21.5L27.0353 18.2635C27.1994 18.1413 27.3326 17.9837 27.4244 17.8028C27.5162 17.6219 27.5641 17.4226 27.5645 17.2206ZM25.7503 25.4231H17.342L21.5645 22.3173L25.7503 25.4231ZM16.8978 28.6923V26.7308H26.2311V28.6923H16.8978ZM26.2311 17.2206L21.5645 20.6827L16.8978 17.25V14.3077H26.2311V17.2206Z" fill="#434027"/>
</svg>
