<svg width="17" height="17" viewBox="0 0 17 17" fill="none" xmlns="http://www.w3.org/2000/svg">
<path d="M2.125 4.25C2.125 4.1091 2.18097 3.97398 2.2806 3.87435C2.38023 3.77472 2.51535 3.71875 2.65625 3.71875H14.3438C14.4846 3.71875 14.6198 3.77472 14.7194 3.87435C14.819 3.97398 14.875 4.1091 14.875 4.25C14.875 4.3909 14.819 4.52602 14.7194 4.62565C14.6198 4.72528 14.4846 4.78125 14.3438 4.78125H2.65625C2.51535 4.78125 2.38023 4.72528 2.2806 4.62565C2.18097 4.52602 2.125 4.3909 2.125 4.25ZM9.03125 7.96875H2.65625C2.51535 7.96875 2.38023 8.02472 2.2806 8.12435C2.18097 8.22398 2.125 8.3591 2.125 8.5C2.125 8.6409 2.18097 8.77602 2.2806 8.87565C2.38023 8.97528 2.51535 9.03125 2.65625 9.03125H9.03125C9.17215 9.03125 9.30727 8.97528 9.4069 8.87565C9.50653 8.77602 9.5625 8.6409 9.5625 8.5C9.5625 8.3591 9.50653 8.22398 9.4069 8.12435C9.30727 8.02472 9.17215 7.96875 9.03125 7.96875ZM9.03125 12.2187H2.65625C2.51535 12.2187 2.38023 12.2747 2.2806 12.3743C2.18097 12.474 2.125 12.6091 2.125 12.75C2.125 12.8909 2.18097 13.026 2.2806 13.1256C2.38023 13.2253 2.51535 13.2812 2.65625 13.2812H9.03125C9.17215 13.2812 9.30727 13.2253 9.4069 13.1256C9.50653 13.026 9.5625 12.8909 9.5625 12.75C9.5625 12.6091 9.50653 12.474 9.4069 12.3743C9.30727 12.2747 9.17215 12.2187 9.03125 12.2187ZM16.4688 10.625C16.4687 10.7151 16.4458 10.8036 16.4021 10.8824C16.3584 10.9611 16.2954 11.0275 16.2191 11.0752L11.9691 13.7315C11.8887 13.7817 11.7963 13.8095 11.7015 13.812C11.6067 13.8146 11.513 13.7916 11.4301 13.7457C11.3471 13.6998 11.278 13.6325 11.2299 13.5508C11.1817 13.4691 11.1563 13.3761 11.1563 13.2812V7.96875C11.1563 7.87394 11.1817 7.78087 11.2299 7.6992C11.278 7.61753 11.3471 7.55024 11.4301 7.5043C11.513 7.45836 11.6067 7.43545 11.7015 7.43795C11.7963 7.44045 11.8887 7.46827 11.9691 7.51852L16.2191 10.1748C16.2954 10.2225 16.3584 10.2889 16.4021 10.3676C16.4458 10.4464 16.4687 10.5349 16.4688 10.625ZM14.9354 10.625L12.2188 8.92699V12.323L14.9354 10.625Z" fill="#242929"/>
</svg>
