<svg width="30" height="30" viewBox="0 0 30 30" fill="none" xmlns="http://www.w3.org/2000/svg">
<rect width="30" height="30" rx="7" fill="#DDEAE7" fill-opacity="0.9"/>
<path d="M22.3311 21.5156L18.7242 17.9095C19.7696 16.6544 20.2909 15.0445 20.1797 13.4149C20.0684 11.7852 19.3331 10.2612 18.1268 9.15979C16.9205 8.05843 15.336 7.46453 13.703 7.50164C12.07 7.53875 10.5141 8.20402 9.35906 9.35906C8.20402 10.5141 7.53875 12.07 7.50164 13.703C7.46453 15.336 8.05843 16.9205 9.15979 18.1268C10.2612 19.3331 11.7852 20.0684 13.4149 20.1797C15.0445 20.2909 16.6544 19.7696 17.9095 18.7242L21.5156 22.3311C21.5692 22.3847 21.6328 22.4271 21.7027 22.4561C21.7727 22.4851 21.8477 22.5 21.9234 22.5C21.9991 22.5 22.0741 22.4851 22.144 22.4561C22.214 22.4271 22.2776 22.3847 22.3311 22.3311C22.3847 22.2776 22.4271 22.214 22.4561 22.144C22.4851 22.0741 22.5 21.9991 22.5 21.9234C22.5 21.8477 22.4851 21.7727 22.4561 21.7027C22.4271 21.6328 22.3847 21.5692 22.3311 21.5156ZM8.66852 13.8552C8.66852 12.8294 8.97271 11.8266 9.54263 10.9736C10.1126 10.1207 10.9226 9.4559 11.8703 9.06333C12.8181 8.67076 13.861 8.56805 14.8671 8.76818C15.8732 8.96831 16.7974 9.46229 17.5227 10.1877C18.2481 10.913 18.7421 11.8372 18.9422 12.8433C19.1424 13.8495 19.0396 14.8923 18.6471 15.8401C18.2545 16.7878 17.5897 17.5979 16.7368 18.1678C15.8838 18.7377 14.881 19.0419 13.8552 19.0419C12.4801 19.0404 11.1617 18.4934 10.1893 17.5211C9.21699 16.5487 8.67004 15.2303 8.66852 13.8552Z" fill="#36403E"/>
</svg>
