<svg width="30" height="30" viewBox="0 0 30 30" fill="none" xmlns="http://www.w3.org/2000/svg">
<rect width="30" height="30" rx="7" fill="#EBEAD8"/>
<path d="M22.2226 17.4422C22.1378 17.3867 22.0407 17.3542 21.9406 17.348C21.8404 17.3418 21.7404 17.362 21.6498 17.4067C21.423 17.5181 21.1727 17.5681 20.9223 17.5521C20.6719 17.5362 20.4295 17.4547 20.2175 17.3153C20.0055 17.1759 19.831 16.9831 19.71 16.7548C19.589 16.5266 19.5256 16.2703 19.5256 16.0097C19.5256 15.7492 19.589 15.4929 19.71 15.2646C19.831 15.0363 20.0055 14.8435 20.2175 14.7041C20.4295 14.5647 20.6719 14.4833 20.9223 14.4673C21.1727 14.4513 21.423 14.5013 21.6498 14.6127C21.7405 14.6575 21.8406 14.6776 21.9409 14.6713C22.0412 14.665 22.1382 14.6325 22.2231 14.5767C22.308 14.5209 22.3779 14.4438 22.4264 14.3524C22.4748 14.261 22.5002 14.1584 22.5001 14.0541V10.7556C22.5001 10.4277 22.3747 10.1132 22.1515 9.8814C21.9282 9.64955 21.6255 9.5193 21.3097 9.5193H18.615C18.6261 9.41668 18.6315 9.31349 18.6314 9.21023C18.6308 8.83033 18.5556 8.45454 18.4102 8.10591C18.2649 7.75728 18.0525 7.44314 17.7862 7.18275C17.4174 6.823 16.958 6.57912 16.4612 6.47933C15.9644 6.37954 15.4506 6.42793 14.9792 6.6189C14.5078 6.80987 14.0981 7.13561 13.7976 7.55839C13.4971 7.98117 13.3181 8.4837 13.2813 9.00779C13.2698 9.17827 13.2733 9.34948 13.2917 9.5193H10.5962C10.2805 9.5193 9.97769 9.64955 9.75445 9.8814C9.53121 10.1132 9.40579 10.4277 9.40579 10.7556V13.2451C9.30698 13.2336 9.20762 13.2279 9.10819 13.2281C8.74239 13.2287 8.38056 13.3069 8.04487 13.4578C7.70918 13.6088 7.40669 13.8293 7.15594 14.1059C6.90339 14.3829 6.70892 14.7114 6.58483 15.0705C6.46074 15.4295 6.40973 15.8115 6.43501 16.1921C6.47766 16.8623 6.75186 17.4939 7.20718 17.9709C7.6625 18.4479 8.26833 18.7381 8.91326 18.7882C9.07741 18.8005 9.24229 18.7969 9.40579 18.7774V21.2639C9.40579 21.5917 9.53121 21.9062 9.75445 22.138C9.97769 22.3699 10.2805 22.5001 10.5962 22.5001H21.3097C21.6255 22.5001 21.9282 22.3699 22.1515 22.138C22.3747 21.9062 22.5001 21.5917 22.5001 21.2639V17.9653C22.5002 17.8609 22.4748 17.7582 22.4263 17.6667C22.3777 17.5752 22.3077 17.498 22.2226 17.4422ZM21.3097 21.2639H10.5962V17.9653C10.5962 17.861 10.5708 17.7584 10.5224 17.667C10.474 17.5757 10.404 17.4985 10.3192 17.4427C10.2343 17.387 10.1372 17.3544 10.0369 17.3481C9.93669 17.3418 9.83653 17.362 9.7458 17.4067C9.519 17.5181 9.26877 17.5681 9.01836 17.5521C8.76795 17.5362 8.5255 17.4547 8.31354 17.3153C8.10159 17.1759 7.92701 16.9831 7.80604 16.7548C7.68507 16.5266 7.62164 16.2703 7.62164 16.0097C7.62164 15.7492 7.68507 15.4929 7.80604 15.2646C7.92701 15.0363 8.10159 14.8435 8.31354 14.7041C8.5255 14.5647 8.76795 14.4833 9.01836 14.4673C9.26877 14.4513 9.519 14.5013 9.7458 14.6127C9.83653 14.6575 9.93669 14.6776 10.0369 14.6713C10.1372 14.665 10.2343 14.6325 10.3192 14.5767C10.404 14.5209 10.474 14.4438 10.5224 14.3524C10.5708 14.261 10.5962 14.1584 10.5962 14.0541V10.7556H14.0699C14.1703 10.7556 14.2692 10.7292 14.3571 10.6789C14.4451 10.6286 14.5194 10.556 14.5731 10.4679C14.6268 10.3797 14.6581 10.2789 14.6642 10.1748C14.6703 10.0707 14.6509 9.96664 14.6078 9.87241C14.5006 9.63687 14.4524 9.377 14.4678 9.11694C14.4832 8.85688 14.5616 8.60508 14.6958 8.38496C14.8301 8.16484 15.0157 7.98353 15.2355 7.8579C15.4553 7.73227 15.7021 7.66639 15.953 7.66639C16.2038 7.66639 16.4507 7.73227 16.6704 7.8579C16.8902 7.98353 17.0759 8.16484 17.2101 8.38496C17.3443 8.60508 17.4228 8.85688 17.4382 9.11694C17.4535 9.377 17.4054 9.63687 17.2981 9.87241C17.255 9.96664 17.2356 10.0707 17.2417 10.1748C17.2478 10.2789 17.2791 10.3797 17.3328 10.4679C17.3865 10.556 17.4608 10.6286 17.5488 10.6789C17.6368 10.7292 17.7356 10.7556 17.836 10.7556H21.3097V13.2459C21.1462 13.2264 20.9814 13.2228 20.8172 13.2351C20.1245 13.286 19.4779 13.6144 19.0138 14.1509C18.5498 14.6875 18.3045 15.3903 18.3298 16.111C18.3551 16.8317 18.6489 17.5141 19.1494 18.0142C19.6498 18.5142 20.3177 18.7929 21.0121 18.7913C21.1116 18.7915 21.2109 18.7858 21.3097 18.7743V21.2639Z" fill="#383929"/>
</svg>
