<svg width="30" height="30" viewBox="0 0 30 30" fill="none" xmlns="http://www.w3.org/2000/svg">
<rect width="30" height="30" rx="7" fill="#EEDEC5"/>
<path d="M22.0719 11.6225C22.9082 13.3717 23.067 15.3686 22.5175 17.2279C21.9681 19.0872 20.7494 20.6771 19.0967 21.6907C17.444 22.7043 15.4744 23.0698 13.5681 22.7166C11.6617 22.3634 9.95378 21.3166 8.77386 19.7782C7.59394 18.2398 7.0257 16.3189 7.1788 14.3862C7.3319 12.4534 8.19549 10.6459 9.6029 9.31248C11.0103 7.97904 12.8618 7.21419 14.7999 7.16556C16.7381 7.11692 18.6256 7.78794 20.0981 9.04911L21.8059 7.34052C21.919 7.22743 22.0724 7.1639 22.2323 7.1639C22.3923 7.1639 22.5456 7.22743 22.6587 7.34052C22.7718 7.4536 22.8354 7.60698 22.8354 7.76691C22.8354 7.92684 22.7718 8.08022 22.6587 8.19331L15.4266 15.4255C15.3135 15.5385 15.1601 15.6021 15.0002 15.6021C14.8403 15.6021 14.6869 15.5385 14.5738 15.4255C14.4607 15.3124 14.3972 15.159 14.3972 14.9991C14.3972 14.8391 14.4607 14.6857 14.5738 14.5727L16.6621 12.4844C16.0961 12.1101 15.4204 11.9377 14.7443 11.9953C14.0682 12.0528 13.4314 12.3368 12.9368 12.8013C12.4422 13.2659 12.1189 13.8837 12.0191 14.5549C11.9194 15.226 12.0491 15.9112 12.3872 16.4995C12.7253 17.0877 13.2521 17.5447 13.8823 17.7963C14.5124 18.048 15.209 18.0796 15.8594 17.886C16.5097 17.6925 17.0757 17.2851 17.4657 16.7298C17.8557 16.1746 18.0469 15.504 18.0083 14.8265C18.0039 14.7474 18.015 14.6681 18.0412 14.5933C18.0674 14.5185 18.108 14.4496 18.1609 14.3905C18.2137 14.3313 18.2776 14.2832 18.349 14.2488C18.4205 14.2144 18.4979 14.1944 18.5771 14.19C18.7369 14.181 18.8938 14.2358 19.0132 14.3425C19.0723 14.3953 19.1204 14.4593 19.1548 14.5307C19.1892 14.6021 19.2092 14.6796 19.2137 14.7587C19.2686 15.7176 18.9947 16.6665 18.4373 17.4486C17.8799 18.2307 17.0723 18.7992 16.148 19.0601C15.2238 19.3211 14.2381 19.2588 13.354 18.8837C12.4698 18.5086 11.7402 17.843 11.2856 16.997C10.831 16.1509 10.6787 15.1751 10.8538 14.2308C11.0289 13.2865 11.521 12.4302 12.2488 11.8034C12.9765 11.1767 13.8963 10.817 14.8561 10.7839C15.816 10.7507 16.7584 11.046 17.5277 11.621L19.2415 9.90717C17.9856 8.86439 16.3886 8.3224 14.7574 8.38532C13.1261 8.44823 11.5756 9.11161 10.4037 10.248C9.23177 11.3845 8.52103 12.9138 8.40798 14.5423C8.29493 16.1709 8.78754 17.7838 9.79121 19.0712C10.7949 20.3587 12.2388 21.2299 13.8457 21.5176C15.4526 21.8053 17.1092 21.4892 18.4972 20.6299C19.8852 19.7707 20.9068 18.4289 21.3658 16.8623C21.8248 15.2958 21.6889 13.6148 20.984 12.1424C20.9151 11.9981 20.9063 11.8324 20.9596 11.6816C21.0128 11.5309 21.1238 11.4075 21.2681 11.3385C21.4123 11.2696 21.578 11.2608 21.7288 11.3141C21.8795 11.3673 22.0029 11.4783 22.0719 11.6225Z" fill="#3D372D"/>
</svg>
