<svg width="43" height="43" viewBox="0 0 43 43" fill="none" xmlns="http://www.w3.org/2000/svg">
<circle cx="21.5" cy="21.5" r="21.5" fill="#908381"/>
<path d="M28.664 21.8635C28.5578 21.9585 28.4317 22.034 28.2928 22.0854C28.1539 22.1369 28.005 22.1634 27.8547 22.1634C27.7043 22.1634 27.5554 22.1369 27.4165 22.0854C27.2777 22.034 27.1515 21.9585 27.0454 21.8635L22.1431 17.4877V29.9802C22.1431 30.2507 22.0227 30.5101 21.8084 30.7013C21.5942 30.8926 21.3036 31 21.0005 31C20.6975 31 20.4069 30.8926 20.1927 30.7013C19.9784 30.5101 19.858 30.2507 19.858 29.9802V17.4877L14.9538 21.8635C14.7391 22.055 14.448 22.1627 14.1445 22.1627C13.841 22.1627 13.5499 22.055 13.3352 21.8635C13.1206 21.6719 13 21.412 13 21.1411C13 20.8702 13.1206 20.6103 13.3352 20.4187L20.1903 14.2999C20.2964 14.2049 20.4226 14.1294 20.5614 14.078C20.7003 14.0265 20.8492 14 20.9996 14C21.15 14 21.2989 14.0265 21.4377 14.078C21.5766 14.1294 21.7027 14.2049 21.8089 14.2999L28.664 20.4187C28.7705 20.5135 28.855 20.6261 28.9127 20.75C28.9703 20.874 29 21.0069 29 21.1411C29 21.2753 28.9703 21.4082 28.9127 21.5322C28.855 21.6561 28.7705 21.7687 28.664 21.8635Z" fill="white"/>
</svg>
