<svg width="21" height="21" viewBox="0 0 21 21" fill="none" xmlns="http://www.w3.org/2000/svg">
<path d="M17.2059 12.1849C17.2077 12.4772 17.1189 12.7628 16.9517 13.0025C16.7845 13.2422 16.5472 13.4242 16.2723 13.5235L11.651 15.2312L9.94869 19.856C9.84788 20.1299 9.66549 20.3663 9.42614 20.5332C9.18678 20.7002 8.90197 20.7897 8.61014 20.7897C8.31831 20.7897 8.0335 20.7002 7.79414 20.5332C7.55479 20.3663 7.3724 20.1299 7.27159 19.856L5.55853 15.2312L0.933639 13.5288C0.659773 13.428 0.423419 13.2457 0.256467 13.0063C0.0895149 12.7669 0 12.4821 0 12.1903C0 11.8985 0.0895149 11.6137 0.256467 11.3743C0.423419 11.1349 0.659773 10.9526 0.933639 10.8517L5.55853 9.13869L7.26084 4.5138C7.36165 4.23993 7.54403 4.00358 7.78339 3.83662C8.02275 3.66967 8.30756 3.58016 8.59939 3.58016C8.89122 3.58016 9.17603 3.66967 9.41538 3.83662C9.65474 4.00358 9.83713 4.23993 9.93794 4.5138L11.651 9.13869L16.2759 10.841C16.551 10.9412 16.7882 11.1242 16.9548 11.365C17.1213 11.6057 17.2091 11.8922 17.2059 12.1849ZM12.1886 3.5838H13.6221V5.01732C13.6221 5.20742 13.6976 5.38973 13.832 5.52415C13.9664 5.65857 14.1487 5.73408 14.3388 5.73408C14.5289 5.73408 14.7113 5.65857 14.8457 5.52415C14.9801 5.38973 15.0556 5.20742 15.0556 5.01732V3.5838H16.4891C16.6792 3.5838 16.8615 3.50828 16.996 3.37387C17.1304 3.23945 17.2059 3.05714 17.2059 2.86704C17.2059 2.67694 17.1304 2.49463 16.996 2.36021C16.8615 2.2258 16.6792 2.15028 16.4891 2.15028H15.0556V0.71676C15.0556 0.526663 14.9801 0.344353 14.8457 0.209934C14.7113 0.0755155 14.5289 0 14.3388 0C14.1487 0 13.9664 0.0755155 13.832 0.209934C13.6976 0.344353 13.6221 0.526663 13.6221 0.71676V2.15028H12.1886C11.9985 2.15028 11.8162 2.2258 11.6817 2.36021C11.5473 2.49463 11.4718 2.67694 11.4718 2.86704C11.4718 3.05714 11.5473 3.23945 11.6817 3.37387C11.8162 3.50828 11.9985 3.5838 12.1886 3.5838ZM20.0729 6.45084H19.3562V5.73408C19.3562 5.54398 19.2806 5.36167 19.1462 5.22725C19.0118 5.09284 18.8295 5.01732 18.6394 5.01732C18.4493 5.01732 18.267 5.09284 18.1326 5.22725C17.9982 5.36167 17.9226 5.54398 17.9226 5.73408V6.45084H17.2059C17.0158 6.45084 16.8335 6.52636 16.6991 6.66078C16.5646 6.79519 16.4891 6.9775 16.4891 7.1676C16.4891 7.3577 16.5646 7.54001 16.6991 7.67443C16.8335 7.80885 17.0158 7.88436 17.2059 7.88436H17.9226V8.60112C17.9226 8.79122 17.9982 8.97353 18.1326 9.10795C18.267 9.24237 18.4493 9.31788 18.6394 9.31788C18.8295 9.31788 19.0118 9.24237 19.1462 9.10795C19.2806 8.97353 19.3562 8.79122 19.3562 8.60112V7.88436H20.0729C20.263 7.88436 20.4453 7.80885 20.5798 7.67443C20.7142 7.54001 20.7897 7.3577 20.7897 7.1676C20.7897 6.9775 20.7142 6.79519 20.5798 6.66078C20.4453 6.52636 20.263 6.45084 20.0729 6.45084Z" fill="white"/>
</svg>
