<svg width="49" height="47" viewBox="0 0 49 47" fill="none" xmlns="http://www.w3.org/2000/svg">
<path d="M21.3253 1.30836C22.9122 -0.436125 25.6561 -0.436123 27.243 1.30836L27.9749 2.11285C29.0379 3.28138 30.689 3.71487 32.1889 3.2192L33.2964 2.8532C35.5755 2.10002 38.0001 3.50974 38.4731 5.86304L38.6071 6.5296C38.9303 8.13775 40.2025 9.38559 41.8166 9.67757L42.636 9.82579C45.0807 10.268 46.5351 12.8084 45.6789 15.1406L45.5617 15.4596C44.9746 17.0586 45.4646 18.854 46.7826 19.9332L47.1028 20.1953C49.0574 21.7957 49.0574 24.7848 47.1028 26.3852L46.7826 26.6473C45.4646 27.7264 44.9746 29.5219 45.5618 31.1209L45.6789 31.4399C46.5352 33.772 45.0807 36.3125 42.636 36.7547L41.8166 36.9029C40.2025 37.1949 38.9303 38.4427 38.6071 40.0509L38.4731 40.7174C38.0001 43.0707 35.5755 44.4805 33.2964 43.7273L32.1889 43.3613C30.689 42.8656 29.0379 43.2991 27.9749 44.4676L27.243 45.2721C25.6561 47.0166 22.9122 47.0166 21.3253 45.2721L20.5934 44.4676C19.5304 43.2991 17.8793 42.8656 16.3794 43.3613L15.2719 43.7273C12.9928 44.4805 10.5682 43.0707 10.0952 40.7174L9.96124 40.0509C9.63804 38.4427 8.36578 37.1949 6.75167 36.9029L5.93231 36.7547C3.48763 36.3125 2.03315 33.772 2.88942 31.4399L3.00655 31.1209C3.59366 29.5219 3.10368 27.7264 1.78569 26.6473L1.46554 26.3852C-0.489077 24.7848 -0.489077 21.7957 1.46554 20.1953L1.78569 19.9332C3.10368 18.854 3.59366 17.0586 3.00655 15.4596L2.88942 15.1406C2.03315 12.8084 3.48762 10.268 5.93231 9.82579L6.75167 9.67757C8.36578 9.38559 9.63804 8.13775 9.96124 6.5296L10.0952 5.86304C10.5682 3.50974 12.9928 2.10002 15.2719 2.8532L16.3794 3.2192C17.8793 3.71487 19.5304 3.28138 20.5934 2.11285L21.3253 1.30836Z" fill="#D9D7A8" fill-opacity="0.8"/>
</svg>
