<svg width="45" height="45" viewBox="0 0 45 45" fill="none" xmlns="http://www.w3.org/2000/svg">
<rect width="44.3588" height="44.3588" rx="22.1794" fill="#ECE1D1"/>
<path d="M33.2696 22.5642C33.2696 22.7688 33.1861 22.965 33.0376 23.1097C32.889 23.2544 32.6876 23.3357 32.4775 23.3357H29.7981L26.0573 30.6239C25.9915 30.7521 25.8903 30.8599 25.765 30.9352C25.6398 31.0104 25.4955 31.0503 25.3484 31.0502H25.3088C25.1551 31.0428 25.007 30.992 24.8825 30.9039C24.758 30.8159 24.6626 30.6945 24.6078 30.5545L18.9471 16.0802L15.7716 22.8834C15.7087 23.0182 15.6073 23.1326 15.4795 23.2127C15.3517 23.2929 15.2029 23.3356 15.0508 23.3357H11.8823C11.6722 23.3357 11.4708 23.2544 11.3222 23.1097C11.1737 22.965 11.0902 22.7688 11.0902 22.5642C11.0902 22.3596 11.1737 22.1634 11.3222 22.0187C11.4708 21.8741 11.6722 21.7928 11.8823 21.7928H14.5409L18.2906 13.7591C18.3552 13.6205 18.4606 13.5036 18.5933 13.4231C18.726 13.3427 18.8802 13.3023 19.0365 13.307C19.1928 13.3118 19.3441 13.3614 19.4714 13.4498C19.5988 13.5381 19.6964 13.6612 19.7521 13.8035L25.4464 28.3646L28.6 22.2209C28.6656 22.0924 28.7667 21.9842 28.892 21.9086C29.0172 21.833 29.1616 21.7929 29.309 21.7928H32.4775C32.6876 21.7928 32.889 21.8741 33.0376 22.0187C33.1861 22.1634 33.2696 22.3596 33.2696 22.5642Z" fill="#33291F"/>
</svg>
