<svg width="122" height="60" viewBox="0 0 122 60" fill="none" xmlns="http://www.w3.org/2000/svg">
<path d="M119.011 13.2388L91.8745 1.10323C91.2202 0.810637 90.4764 0.789939 89.8069 1.04569C89.1374 1.30144 88.5968 1.8127 88.3042 2.46698L77.2719 27.1368C77.178 27.3471 77.1394 27.5779 77.1598 27.8073C77.1801 28.0367 77.2588 28.257 77.3883 28.4475C77.5178 28.6379 77.6938 28.7921 77.8996 28.8954C78.1055 28.9987 78.3343 29.0477 78.5644 29.0377L83.9262 28.8063L87.3283 32.9569C87.4613 33.1193 87.6304 33.2485 87.822 33.3342C88.0136 33.4199 88.2226 33.4597 88.4323 33.4506L93.7941 33.2192L97.1963 37.3699C97.3293 37.5322 97.4983 37.6614 97.6899 37.7471C97.8816 37.8328 98.0905 37.8727 98.3002 37.8635L103.662 37.6322L107.064 41.7828C107.21 41.9609 107.399 42.0988 107.613 42.1834C107.828 42.2679 108.06 42.2963 108.288 42.2659C108.516 42.2354 108.733 42.1471 108.918 42.0094C109.102 41.8716 109.249 41.689 109.343 41.4788L120.375 16.809C120.668 16.1547 120.688 15.411 120.433 14.7415C120.177 14.0719 119.666 13.5314 119.011 13.2388ZM107.768 38.3804L105.324 35.3966C105.191 35.2342 105.022 35.1051 104.83 35.0194C104.639 34.9337 104.43 34.8938 104.22 34.9029L98.8577 35.1358L95.4562 30.9837C95.3232 30.8213 95.1542 30.6921 94.9625 30.6064C94.7709 30.5208 94.5619 30.4809 94.3522 30.49L88.9898 30.7229L85.5883 26.5708C85.4553 26.4084 85.2862 26.2792 85.0946 26.1935C84.903 26.1078 84.694 26.068 84.4843 26.0771L80.6311 26.2449L90.7712 3.57021L117.908 15.7058L107.768 38.3804ZM101.712 18.824C101.858 18.4969 102.128 18.2413 102.463 18.1134C102.798 17.9855 103.17 17.9959 103.497 18.1422L110.898 21.4519C111.225 21.5982 111.481 21.8684 111.608 22.2032C111.736 22.538 111.726 22.9098 111.58 23.237C111.433 23.5641 111.163 23.8197 110.828 23.9476C110.494 24.0755 110.122 24.0651 109.795 23.9189L102.394 20.6092C102.067 20.4629 101.811 20.1926 101.683 19.8578C101.555 19.523 101.565 19.1512 101.712 18.824ZM99.5053 23.758C99.6516 23.4309 99.9219 23.1752 100.257 23.0474C100.591 22.9195 100.963 22.9298 101.29 23.0761L108.691 26.3858C109.019 26.5321 109.274 26.8024 109.402 27.1372C109.53 27.4719 109.52 27.8438 109.373 28.1709C109.227 28.4981 108.957 28.7537 108.622 28.8816C108.287 29.0095 107.915 28.9991 107.588 28.8528L100.187 25.5431C99.8601 25.3968 99.6044 25.1266 99.4765 24.7918C99.3487 24.457 99.359 24.0851 99.5053 23.758ZM86.7491 22.4939L94.15 25.8036C94.4771 25.9499 94.849 25.9603 95.1838 25.8324C95.5185 25.7045 95.7888 25.4489 95.9351 25.1218L100.348 15.2538C100.494 14.9267 100.505 14.5548 100.377 14.2201C100.249 13.8853 99.9933 13.615 99.6662 13.4687L92.2652 10.159C91.9381 10.0127 91.5662 10.0024 91.2314 10.1303C90.8967 10.2581 90.6264 10.5138 90.4801 10.8409L86.0672 20.7088C85.9209 21.036 85.9105 21.4078 86.0384 21.7426C86.1663 22.0774 86.4219 22.3476 86.7491 22.4939ZM92.3955 13.1776L97.3294 15.3841L94.0197 22.785L89.0858 20.5786L92.3955 13.1776Z" fill="#D8E2D6"/>
<g clip-path="url(#clip0_194_449)">
<path d="M9.61986 5.31432C9.35034 5.39249 9.09901 5.52335 8.88042 5.69934C8.66184 5.87533 8.48035 6.09294 8.34646 6.33957L3.36801 15.4419C3.23333 15.6881 3.14847 15.9584 3.11827 16.2374C3.08808 16.5163 3.11314 16.7985 3.19203 17.0678C3.27091 17.3371 3.40208 17.5882 3.57803 17.8068C3.75399 18.0253 3.97128 18.2071 4.2175 18.3417L7.90445 20.3579L11.8239 25.5803C12.0489 25.8803 12.3489 26.1157 12.6937 26.263C13.0385 26.4103 13.4159 26.4643 13.7882 26.4195L28.7767 24.6151C28.9619 24.5932 29.1401 24.5312 29.2988 24.4334C29.4575 24.3356 29.593 24.2043 29.6958 24.0487C29.7986 23.8931 29.8662 23.717 29.8939 23.5326C29.9216 23.3482 29.9087 23.16 29.8562 22.9811C29.8364 22.9123 29.8108 22.8453 29.7797 22.7809L23.2092 9.18531C23.0456 8.84827 22.7965 8.56 22.4867 8.34923C22.177 8.13846 21.8174 8.01255 21.4438 7.98406L14.9312 7.50349L11.2443 5.4873C10.9984 5.35248 10.7282 5.26777 10.4494 5.23807C10.1706 5.20838 9.88861 5.2343 9.61986 5.31432ZM21.0096 10.5253L25.7302 20.2944L21.3567 17.9028C21.4745 17.0611 21.2934 16.2047 20.8448 15.4828C20.3962 14.7609 19.7086 14.2192 18.9017 13.952C18.0949 13.6849 17.2199 13.7092 16.4291 14.0208C15.6383 14.3323 14.9819 14.9114 14.5741 15.6571C14.1663 16.4028 14.033 17.2679 14.1974 18.1018C14.3618 18.9357 14.8134 19.6855 15.4737 20.2207C16.134 20.7559 16.9611 21.0425 17.811 21.0306C18.6608 21.0187 19.4796 20.7092 20.1247 20.1558L24.4981 22.5474L13.7261 23.8444L10.2825 19.255L15.2878 10.1036L21.0096 10.5253ZM18.0591 18.4237C17.8564 18.483 17.6406 18.481 17.439 18.4177C17.2375 18.3545 17.0592 18.2329 16.9267 18.0683C16.7943 17.9038 16.7136 17.7036 16.6949 17.4932C16.6762 17.2828 16.7203 17.0715 16.8217 16.8862C16.9231 16.7008 17.0771 16.5497 17.2643 16.4519C17.4516 16.3541 17.6636 16.314 17.8737 16.3368C18.0837 16.3595 18.2822 16.4439 18.4443 16.5795C18.6063 16.7151 18.7244 16.8956 18.7838 17.0984C18.8635 17.3702 18.8319 17.6626 18.6959 17.9111C18.56 18.1597 18.3309 18.344 18.0591 18.4237ZM12.8189 9.27424L8.25312 17.6235L5.82254 16.2944L10.3883 7.94509L12.8189 9.27424Z" fill="#D9EBF0"/>
</g>
<path d="M50.8025 38.5283L42.0776 35.3042L38.8638 26.5726C38.6734 26.0556 38.3291 25.6094 37.8772 25.2942C37.4253 24.979 36.8876 24.81 36.3366 24.81C35.7857 24.81 35.248 24.979 34.7961 25.2942C34.3442 25.6094 33.9998 26.0556 33.8095 26.5726L30.5753 35.3042L21.8437 38.5181C21.3267 38.7084 20.8805 39.0528 20.5653 39.5047C20.2501 39.9566 20.0811 40.4943 20.0811 41.0452C20.0811 41.5962 20.2501 42.1339 20.5653 42.5858C20.8805 43.0377 21.3267 43.382 21.8437 43.5724L30.5753 46.8065L33.7892 55.5381C33.9795 56.0552 34.3239 56.5014 34.7758 56.8166C35.2277 57.1318 35.7654 57.3008 36.3163 57.3008C36.8673 57.3008 37.405 57.1318 37.8569 56.8166C38.3088 56.5014 38.6531 56.0552 38.8435 55.5381L42.0776 46.8065L50.8092 43.5927C51.3263 43.4023 51.7725 43.058 52.0877 42.6061C52.4029 42.1542 52.5719 41.6165 52.5719 41.0655C52.5719 40.5146 52.4029 39.9769 52.0877 39.525C51.7725 39.0731 51.3263 38.7287 50.8092 38.5384L50.8025 38.5283ZM40.5553 44.4756C40.3716 44.5433 40.2048 44.6501 40.0664 44.7885C39.9279 44.9269 39.8212 45.0937 39.7535 45.2774L36.3265 54.5621L32.9062 45.2842C32.8386 45.0986 32.7312 44.93 32.5916 44.7903C32.4519 44.6506 32.2833 44.5432 32.0977 44.4756L22.8197 41.0554L32.0977 37.6351C32.2833 37.5676 32.4519 37.4602 32.5916 37.3205C32.7312 37.1808 32.8386 37.0122 32.9062 36.8266L36.3265 27.5486L39.7467 36.8266C39.8144 37.0103 39.9212 37.1771 40.0596 37.3155C40.198 37.4539 40.3648 37.5607 40.5485 37.6284L49.8332 41.0554L40.5553 44.4756ZM41.7393 23.4636C41.7393 23.1047 41.8819 22.7605 42.1357 22.5068C42.3895 22.253 42.7336 22.1104 43.0925 22.1104H45.799V19.404C45.799 19.0451 45.9415 18.7009 46.1953 18.4471C46.4491 18.1934 46.7933 18.0508 47.1522 18.0508C47.5111 18.0508 47.8553 18.1934 48.109 18.4471C48.3628 18.7009 48.5054 19.0451 48.5054 19.404V22.1104H51.2118C51.5707 22.1104 51.9149 22.253 52.1687 22.5068C52.4225 22.7605 52.565 23.1047 52.565 23.4636C52.565 23.8225 52.4225 24.1667 52.1687 24.4205C51.9149 24.6743 51.5707 24.8168 51.2118 24.8168H48.5054V27.5233C48.5054 27.8822 48.3628 28.2264 48.109 28.4801C47.8553 28.7339 47.5111 28.8765 47.1522 28.8765C46.7933 28.8765 46.4491 28.7339 46.1953 28.4801C45.9415 28.2264 45.799 27.8822 45.799 27.5233V24.8168H43.0925C42.7336 24.8168 42.3895 24.6743 42.1357 24.4205C41.8819 24.1667 41.7393 23.8225 41.7393 23.4636ZM59.3311 31.5829C59.3311 31.9418 59.1885 32.286 58.9347 32.5398C58.681 32.7935 58.3368 32.9361 57.9779 32.9361H56.6247V34.2893C56.6247 34.6482 56.4821 34.9924 56.2283 35.2462C55.9745 35.5 55.6303 35.6425 55.2715 35.6425C54.9126 35.6425 54.5684 35.5 54.3146 35.2462C54.0608 34.9924 53.9182 34.6482 53.9182 34.2893V32.9361H52.565C52.2061 32.9361 51.8619 32.7935 51.6082 32.5398C51.3544 32.286 51.2118 31.9418 51.2118 31.5829C51.2118 31.224 51.3544 30.8798 51.6082 30.626C51.8619 30.3723 52.2061 30.2297 52.565 30.2297H53.9182V28.8765C53.9182 28.5176 54.0608 28.1734 54.3146 27.9196C54.5684 27.6658 54.9126 27.5233 55.2715 27.5233C55.6303 27.5233 55.9745 27.6658 56.2283 27.9196C56.4821 28.1734 56.6247 28.5176 56.6247 28.8765V30.2297H57.9779C58.3368 30.2297 58.681 30.3723 58.9347 30.626C59.1885 30.8798 59.3311 31.224 59.3311 31.5829Z" fill="#EAE3D2"/>
<defs>
<clipPath id="clip0_194_449">
<rect width="27.343" height="27.343" fill="white" transform="translate(7.68713 33.9277) rotate(-106.328)"/>
</clipPath>
</defs>
</svg>
