<svg width="125" height="136" viewBox="0 0 125 136" fill="none" xmlns="http://www.w3.org/2000/svg">
<path d="M92.9523 87.084C92.9523 88.4347 92.1385 89.6468 90.8744 90.149L71.3592 97.6296C64.4848 100.262 59.1168 105.751 56.5887 112.695L49.1774 133.145C49.1255 133.301 49.0043 133.405 48.935 133.543C48.8658 133.665 48.8138 133.768 48.7272 133.872C48.606 134.028 48.4848 134.167 48.3463 134.305C48.1212 134.513 47.8614 134.686 47.5844 134.807C47.4112 134.877 47.2381 134.946 47.0476 134.963C46.8744 135.015 46.7012 135.033 46.5108 135.033L45.9394 134.963C45.7662 134.946 45.593 134.877 45.4025 134.807C45.1082 134.686 44.8484 134.496 44.6233 134.288C44.4848 134.167 44.3636 134.028 44.2424 133.872C44.1731 133.786 44.1212 133.682 44.0692 133.595C43.9826 133.439 43.8441 133.318 43.7922 133.145L36.3809 112.695C33.8701 105.768 28.5021 100.262 21.6277 97.6296L2.11253 90.149C0.84846 89.6641 0 88.452 0 87.084C0 85.6641 0.935051 84.4 2.2857 83.9844L20.1385 78.3567C27.8614 75.9151 33.9567 69.941 36.5714 62.2699L43.8441 40.8152C43.9307 40.5728 44.0519 40.3476 44.1731 40.1572C44.2597 40.0186 44.3463 39.8974 44.4848 39.7762C44.7445 39.4818 45.0909 39.274 45.4891 39.1182C45.593 39.0662 45.7316 39.0316 45.8701 39.0143C46.0779 38.945 46.2857 38.9277 46.5108 38.9277C46.7359 38.9277 46.961 38.945 47.1515 39.0143C47.29 39.0316 47.4112 39.0836 47.5324 39.1182C47.8787 39.2567 48.1904 39.4645 48.4675 39.7243C48.5714 39.8282 48.6753 39.9494 48.7618 40.0533C48.935 40.2957 49.0909 40.5382 49.1774 40.8325L56.4502 62.2873C59.0476 69.9583 65.1601 75.9324 72.8657 78.374L90.7185 84.0018C92.0865 84.4174 93.0042 85.6814 93.0042 87.1014L92.9523 87.084Z" fill="#D9DAC1" fill-opacity="0.8"/>
<path d="M124.413 48.4175C124.413 49.1621 123.963 49.8201 123.27 50.0972L112.586 54.2011C108.829 55.6383 105.885 58.6514 104.5 62.4436L100.431 73.6299C100.431 73.6299 100.344 73.7684 100.292 73.855C100.257 73.9242 100.223 73.9762 100.188 74.0281C100.119 74.1147 100.05 74.1839 99.9804 74.2532C99.8592 74.3571 99.7206 74.461 99.5648 74.5303C99.4609 74.5649 99.3743 74.5996 99.2704 74.6169C99.1665 74.6342 99.0799 74.6515 98.976 74.6515L98.6644 74.6169C98.5605 74.6169 98.4739 74.5649 98.37 74.5303C98.2142 74.461 98.0756 74.3571 97.9371 74.2532C97.8505 74.1839 97.7985 74.1147 97.7293 74.0281C97.6947 73.9762 97.66 73.9243 97.6254 73.8723C97.5734 73.7857 97.5042 73.7164 97.4696 73.6299L93.4003 62.4436C92.0323 58.6514 89.0886 55.6383 85.331 54.2011L74.6471 50.0972C73.9544 49.8374 73.4869 49.1621 73.4869 48.4175C73.4869 47.6383 73.989 46.9456 74.7336 46.7205L84.4999 43.6382C88.725 42.3049 92.067 39.0321 93.5042 34.8416L97.4869 23.0839C97.5388 22.9454 97.5908 22.8242 97.66 22.7203C97.712 22.651 97.7639 22.5818 97.8332 22.5125C97.9717 22.3566 98.1622 22.2354 98.3873 22.1488C98.4566 22.1315 98.5258 22.0969 98.5951 22.0969C98.699 22.0622 98.8202 22.0449 98.9414 22.0449C99.0626 22.0449 99.1838 22.0449 99.2877 22.0969C99.357 22.0969 99.4263 22.1315 99.4955 22.1488C99.686 22.2181 99.8592 22.3393 99.9977 22.4778C100.067 22.5298 100.102 22.5991 100.154 22.6683C100.257 22.8069 100.327 22.9281 100.379 23.1012L104.361 34.8589C105.781 39.0494 109.123 42.3222 113.348 43.6555L123.115 46.7378C123.859 46.9629 124.361 47.6556 124.361 48.4348L124.413 48.4175Z" fill="#BABA9A" fill-opacity="0.8"/>
<path d="M81.1425 17.4028C81.1425 17.8876 80.8482 18.3205 80.398 18.511L73.3677 21.2123C70.8915 22.1647 68.9521 24.1388 68.0343 26.6496L65.3677 34.0263C65.3677 34.0263 65.2984 34.1129 65.2811 34.1648C65.2638 34.1995 65.2291 34.2514 65.2118 34.2861C65.1772 34.338 65.1252 34.39 65.0733 34.4419C64.9867 34.5112 64.9001 34.5804 64.7962 34.6324C64.727 34.6497 64.675 34.6843 64.6058 34.6843C64.5365 34.6843 64.4846 34.7016 64.4153 34.7016H64.2075C64.2075 34.7016 64.0863 34.6497 64.017 34.615C63.9131 34.5631 63.8265 34.5112 63.74 34.4246C63.688 34.3726 63.6534 34.338 63.6014 34.2687C63.5841 34.2341 63.5495 34.1995 63.5322 34.1648C63.4975 34.1129 63.4456 34.061 63.4283 34.009L60.7616 26.6323C59.8612 24.1388 57.9218 22.1474 55.4456 21.195L48.4153 18.4937C47.9651 18.3205 47.6534 17.8703 47.6534 17.3855C47.6534 16.866 47.9824 16.4158 48.4846 16.2599L54.9261 14.2339C57.714 13.3508 59.9131 11.2036 60.8482 8.43297L63.4629 0.692637C63.4975 0.606056 63.5322 0.519502 63.5841 0.450238C63.6187 0.398289 63.6534 0.346311 63.688 0.311679C63.7919 0.207782 63.8958 0.121228 64.0516 0.0692795C64.0863 0.0692795 64.1382 0.0346662 64.1902 0.0346662C64.2594 0.01735 64.346 0 64.4153 0C64.4846 0 64.5711 3.38214e-05 64.6404 0.0346662C64.6923 0.0346662 64.7443 0.0519633 64.7789 0.0692795C64.9001 0.121228 65.0213 0.190484 65.1079 0.277065C65.1425 0.311698 65.1772 0.363659 65.2118 0.398291C65.2811 0.484872 65.333 0.571459 65.3677 0.675357L67.9824 8.41569C68.9174 11.1863 71.1166 13.3334 73.9044 14.2166L80.346 16.2426C80.8482 16.3984 81.1772 16.8486 81.1772 17.3681L81.1425 17.4028Z" fill="#BECC66" fill-opacity="0.8"/>
</svg>
