<svg width="43" height="43" viewBox="0 0 43 43" fill="none" xmlns="http://www.w3.org/2000/svg">
<rect width="42.6953" height="42.6953" rx="21.3477" fill="#ECE1D1"/>
<path d="M32.0215 21.718C32.0215 21.915 31.9412 22.1038 31.7982 22.2431C31.6552 22.3823 31.4613 22.4606 31.2591 22.4606H28.6802L25.0797 29.4755C25.0163 29.5989 24.9189 29.7026 24.7984 29.7751C24.6778 29.8475 24.539 29.8859 24.3973 29.8858H24.3592C24.2113 29.8786 24.0688 29.8297 23.9489 29.745C23.8291 29.6603 23.7372 29.5434 23.6845 29.4087L18.2361 15.4772L15.1797 22.0253C15.1192 22.155 15.0215 22.2651 14.8985 22.3422C14.7755 22.4194 14.6323 22.4605 14.4859 22.4606H11.4362C11.234 22.4606 11.0401 22.3823 10.8971 22.2431C10.7542 22.1038 10.6738 21.915 10.6738 21.718C10.6738 21.5211 10.7542 21.3323 10.8971 21.193C11.0401 21.0538 11.234 20.9755 11.4362 20.9755H13.9951L17.6042 13.2431C17.6664 13.1097 17.7678 12.9972 17.8955 12.9197C18.0233 12.8423 18.1717 12.8034 18.3221 12.808C18.4725 12.8125 18.6182 12.8604 18.7408 12.9454C18.8633 13.0304 18.9573 13.1489 19.0109 13.2858L24.4917 27.3009L27.5271 21.3876C27.5902 21.2639 27.6875 21.1598 27.808 21.087C27.9286 21.0142 28.0676 20.9756 28.2094 20.9755H31.2591C31.4613 20.9755 31.6552 21.0538 31.7982 21.193C31.9412 21.3323 32.0215 21.5211 32.0215 21.718Z" fill="#33291F"/>
</svg>
