<svg width="23" height="14" viewBox="0 0 23 14" fill="none" xmlns="http://www.w3.org/2000/svg">
<path d="M16.0471 0.293258C16.1286 0.20029 16.2253 0.126538 16.3318 0.0762186C16.4383 0.0258989 16.5525 0 16.6677 0C16.783 0 16.8972 0.0258989 17.0037 0.0762186C17.1102 0.126538 17.2069 0.20029 17.2884 0.293258L22.5516 6.29268C22.6332 6.38555 22.6979 6.49582 22.7421 6.61721C22.7862 6.7386 22.8089 6.86871 22.8089 7.00011C22.8089 7.13152 22.7862 7.26163 22.7421 7.38302C22.6979 7.50441 22.6332 7.61468 22.5516 7.70755L17.2884 13.707C17.1238 13.8946 16.9005 14 16.6677 14C16.435 14 16.2117 13.8946 16.0471 13.707C15.8825 13.5193 15.79 13.2649 15.79 12.9995C15.79 12.7342 15.8825 12.4797 16.0471 12.2921L20.6909 7.00011L16.0471 1.70812C15.9656 1.61526 15.9008 1.50498 15.8567 1.38359C15.8126 1.26221 15.7898 1.13209 15.7898 1.00069C15.7898 0.869287 15.8126 0.739172 15.8567 0.617786C15.9008 0.4964 15.9656 0.386122 16.0471 0.293258ZM6.76181 12.2921L2.11806 7.00011L6.76181 1.70812C6.92641 1.5205 7.01888 1.26603 7.01888 1.00069C7.01888 0.735353 6.92641 0.48088 6.76181 0.293258C6.59721 0.105635 6.37396 0.000229836 6.14118 0.000229836C5.9084 0.000229836 5.68515 0.105635 5.52055 0.293258L0.257275 6.29268C0.175715 6.38555 0.111012 6.49582 0.0668671 6.61721C0.0227219 6.7386 0 6.86871 0 7.00011C0 7.13152 0.0227219 7.26163 0.0668671 7.38302C0.111012 7.50441 0.175715 7.61468 0.257275 7.70755L5.52055 13.707C5.68515 13.8946 5.9084 14 6.14118 14C6.37396 14 6.59721 13.8946 6.76181 13.707C6.92641 13.5193 7.01888 13.2649 7.01888 12.9995C7.01888 12.7342 6.92641 12.4797 6.76181 12.2921Z" fill="#292929"/>
</svg>
