<svg width="29" height="29" viewBox="0 0 29 29" fill="none" xmlns="http://www.w3.org/2000/svg">
<path d="M25.1188 7.70097L23.3178 4.09907C23.243 3.94947 23.1279 3.82368 22.9856 3.7358C22.8432 3.64793 22.6792 3.60144 22.5119 3.60156H6.30335C6.13606 3.60144 5.97205 3.64793 5.8297 3.7358C5.68735 3.82368 5.57229 3.94947 5.49743 4.09907L3.69648 7.70097C3.63441 7.82624 3.60206 7.96413 3.60193 8.10394V23.412C3.60193 23.8896 3.79167 24.3477 4.12941 24.6855C4.46716 25.0232 4.92524 25.213 5.40288 25.213H23.4124C23.89 25.213 24.3481 25.0232 24.6858 24.6855C25.0236 24.3477 25.2133 23.8896 25.2133 23.412V8.10394C25.2132 7.96413 25.1808 7.82624 25.1188 7.70097ZM18.6466 15.9448C18.563 16.0285 18.4637 16.095 18.3544 16.1403C18.245 16.1856 18.1279 16.2089 18.0095 16.2089C17.8912 16.2089 17.774 16.1856 17.6647 16.1403C17.5554 16.095 17.4561 16.0285 17.3724 15.9448L15.3081 13.8794V20.7106C15.3081 20.9494 15.2132 21.1784 15.0444 21.3473C14.8755 21.5162 14.6464 21.6111 14.4076 21.6111C14.1688 21.6111 13.9398 21.5162 13.7709 21.3473C13.602 21.1784 13.5071 20.9494 13.5071 20.7106V13.8794L11.4428 15.9448C11.3591 16.0285 11.2598 16.0948 11.1505 16.1401C11.0412 16.1854 10.924 16.2087 10.8057 16.2087C10.6874 16.2087 10.5702 16.1854 10.4609 16.1401C10.3516 16.0948 10.2523 16.0285 10.1686 15.9448C10.085 15.8612 10.0186 15.7618 9.97333 15.6525C9.92805 15.5432 9.90475 15.4261 9.90475 15.3077C9.90475 15.1894 9.92805 15.0723 9.97333 14.9629C10.0186 14.8536 10.085 14.7543 10.1686 14.6706L13.7705 11.0687C13.8542 10.985 13.9535 10.9186 14.0628 10.8733C14.1721 10.828 14.2893 10.8047 14.4076 10.8047C14.526 10.8047 14.6431 10.828 14.7525 10.8733C14.8618 10.9186 14.9611 10.985 15.0447 11.0687L18.6466 14.6706C18.7303 14.7543 18.7968 14.8536 18.8421 14.9629C18.8874 15.0722 18.9107 15.1894 18.9107 15.3077C18.9107 15.4261 18.8874 15.5432 18.8421 15.6526C18.7968 15.7619 18.7303 15.8612 18.6466 15.9448ZM5.95892 7.20346L6.8594 5.40251H21.9559L22.8563 7.20346H5.95892Z" fill="#C7C7C7"/>
</svg>
