<svg width="10" height="6" viewBox="0 0 10 6" fill="none" xmlns="http://www.w3.org/2000/svg">
<path d="M9.16707 1.04258L5.10457 5.10508C5.04796 5.16189 4.98069 5.20697 4.90662 5.23772C4.83255 5.26848 4.75313 5.28431 4.67293 5.28431C4.59273 5.28431 4.51332 5.26848 4.43925 5.23772C4.36517 5.20697 4.2979 5.16189 4.24129 5.10508L0.178791 1.04258C0.0643133 0.928102 -1.70586e-09 0.772836 0 0.61094C1.70586e-09 0.449043 0.0643133 0.293777 0.178791 0.179299C0.29327 0.064821 0.448535 0.000507923 0.610432 0.000507921C0.772329 0.000507919 0.927594 0.064821 1.04207 0.179299L4.67344 3.81067L8.30481 0.178792C8.41928 0.0643135 8.57455 0 8.73645 0C8.89834 0 9.05361 0.0643135 9.16809 0.178792C9.28257 0.29327 9.34688 0.448536 9.34688 0.610432C9.34688 0.772329 9.28257 0.927595 9.16809 1.04207L9.16707 1.04258Z" fill="#5C5C5C"/>
</svg>
