<svg width="19" height="18" viewBox="0 0 19 18" fill="none" xmlns="http://www.w3.org/2000/svg">
<path d="M18.0726 13.5975C18.535 12.6385 18.7619 11.583 18.7344 10.5187C18.7069 9.45443 18.4259 8.41205 17.9147 7.47817C17.4034 6.54429 16.6768 5.74587 15.795 5.14924C14.9132 4.55261 13.9018 4.17498 12.8448 4.04773C12.4931 3.22999 11.9817 2.49064 11.3407 1.87297C10.6997 1.25531 9.9419 0.77175 9.11167 0.450614C8.28144 0.129478 7.39548 -0.022781 6.50567 0.0027538C5.61586 0.0282886 4.74009 0.231104 3.92964 0.599322C3.11919 0.967541 2.39036 1.49376 1.78582 2.14717C1.18128 2.80058 0.713182 3.56804 0.408943 4.40461C0.104704 5.24118 -0.0295622 6.13004 0.0140064 7.01915C0.0575751 7.90826 0.278103 8.77974 0.662676 9.58255L0.0545739 11.6494C-0.0134171 11.8802 -0.0179633 12.125 0.0414135 12.3581C0.10079 12.5912 0.221895 12.804 0.391987 12.9741C0.562079 13.1441 0.774869 13.2652 1.00797 13.3246C1.24107 13.384 1.48587 13.3795 1.71661 13.3115L3.78349 12.7034C4.44716 13.0222 5.15869 13.2299 5.88968 13.3182C6.24482 14.1503 6.76501 14.9017 7.4188 15.5271C8.0726 16.1524 8.84641 16.6387 9.69348 16.9566C10.5405 17.2744 11.4433 17.4171 12.3471 17.3762C13.2509 17.3353 14.137 17.1115 14.9518 16.7183L17.0187 17.3264C17.2494 17.3944 17.494 17.3989 17.727 17.3395C17.96 17.2802 18.1728 17.1592 18.3428 16.9892C18.5129 16.8192 18.634 16.6066 18.6935 16.3736C18.7529 16.1406 18.7485 15.8959 18.6807 15.6652L18.0726 13.5975ZM3.84706 11.3174C3.78311 11.3175 3.71949 11.3265 3.65802 11.3441L1.33769 12.0283L2.02108 9.70635C2.06968 9.53859 2.05077 9.35848 1.96838 9.20448C1.36305 8.0724 1.18469 6.76049 1.46581 5.5079C1.74693 4.25531 2.46882 3.14545 3.49988 2.38064C4.53094 1.61583 5.80251 1.247 7.08279 1.34139C8.36306 1.43578 9.56679 1.98709 10.4745 2.89484C11.3823 3.80259 11.9336 5.00632 12.028 6.2866C12.1224 7.56688 11.7536 8.83844 10.9887 9.8695C10.2239 10.9006 9.11408 11.6224 7.86148 11.9036C6.60889 12.1847 5.29698 12.0063 4.16491 11.401C4.06756 11.3471 3.95831 11.3184 3.84706 11.3174ZM16.7109 13.7205L17.3976 16.0433L15.0756 15.3599C14.9079 15.3113 14.7277 15.3303 14.5737 15.4126C13.3415 16.0706 11.901 16.2213 10.5593 15.8325C9.21756 15.4438 8.08073 14.5464 7.39111 13.3315C8.30735 13.2359 9.19393 12.952 9.99525 12.4975C10.7966 12.0431 11.4953 11.4279 12.0477 10.6907C12.6 9.95346 12.9941 9.11003 13.2051 8.21331C13.4161 7.31659 13.4395 6.38594 13.2739 5.47974C14.0722 5.66792 14.8166 6.03701 15.4496 6.55852C16.0826 7.08004 16.5874 7.74003 16.9248 8.48757C17.2623 9.2351 17.4235 10.0502 17.396 10.8699C17.3685 11.6896 17.153 12.4921 16.7661 13.2153C16.6828 13.3702 16.6639 13.5517 16.7134 13.7205H16.7109Z" fill="#B88416"/>
</svg>
